<svg width="90" height="27" viewBox="0 0 90 27" fill="none" xmlns="http://www.w3.org/2000/svg">
<path d="M90.0001 0H68.8223L63.5278 5.29445V8.82218L84.7114 21.1721H63.5278V26.4666H84.7056L90.0001 21.1778V17.6444L68.828 5.29445H90.0001V0Z" fill="white"/>
<path d="M21.1549 10.5889H5.30017V5.28874H21.1549V0H0V26.4723H21.1549L26.4551 21.1435V15.8834L21.1549 10.5889ZM21.1549 21.1778H5.30017V15.8834H21.1549V21.1778Z" fill="white"/>
<path d="M26.4723 5.28302V10.5832H21.1721V0L26.4723 5.28302Z" fill="#0033A0"/>
<path d="M52.9389 0H37.0613L31.7668 5.28874V26.4437H37.0556V15.8834H52.9389V26.4666H58.2334V5.31161L52.9389 0ZM52.9389 10.5889H37.0556V5.28874H52.9389V10.5889Z" fill="white"/>
</svg>
