<svg width="1168" height="109" viewBox="0 0 1168 109" fill="none" xmlns="http://www.w3.org/2000/svg">
<path d="M31.2812 50.0547H10.8281L10.7188 38.7891H27.8906C30.9167 38.7891 33.3958 38.4062 35.3281 37.6406C37.2604 36.8385 38.7005 35.6901 39.6484 34.1953C40.6328 32.6641 41.125 30.8047 41.125 28.6172C41.125 26.138 40.651 24.1328 39.7031 22.6016C38.7917 21.0703 37.3516 19.9583 35.3828 19.2656C33.4505 18.5729 30.9531 18.2266 27.8906 18.2266H16.5156V85H0.109375V5.375H27.8906C32.5208 5.375 36.6589 5.8125 40.3047 6.6875C43.987 7.5625 47.1042 8.89323 49.6562 10.6797C52.2083 12.4661 54.1589 14.7266 55.5078 17.4609C56.8568 20.1589 57.5312 23.3672 57.5312 27.0859C57.5312 30.3672 56.7839 33.3932 55.2891 36.1641C53.8307 38.9349 51.5156 41.1953 48.3438 42.9453C45.2083 44.6953 41.1068 45.6615 36.0391 45.8438L31.2812 50.0547ZM30.5703 85H6.34375L12.7422 72.2031H30.5703C33.4505 72.2031 35.8021 71.7474 37.625 70.8359C39.4479 69.888 40.7969 68.612 41.6719 67.0078C42.5469 65.4036 42.9844 63.5625 42.9844 61.4844C42.9844 59.151 42.5833 57.1276 41.7812 55.4141C41.0156 53.7005 39.776 52.388 38.0625 51.4766C36.349 50.5286 34.0885 50.0547 31.2812 50.0547H15.4766L15.5859 38.7891H35.2734L39.0469 43.2188C43.8958 43.1458 47.7969 44.0026 50.75 45.7891C53.7396 47.5391 55.9089 49.8177 57.2578 52.625C58.6432 55.4323 59.3359 58.4401 59.3359 61.6484C59.3359 66.7526 58.224 71.0547 56 74.5547C53.776 78.0182 50.513 80.625 46.2109 82.375C41.9453 84.125 36.7318 85 30.5703 85ZM87.2812 1V85H71.4766V1H87.2812ZM132.234 71.6562V45.2969C132.234 43.401 131.924 41.7786 131.305 40.4297C130.685 39.0443 129.719 37.9688 128.406 37.2031C127.13 36.4375 125.471 36.0547 123.43 36.0547C121.68 36.0547 120.167 36.3646 118.891 36.9844C117.615 37.5677 116.63 38.4245 115.938 39.5547C115.245 40.6484 114.898 41.9427 114.898 43.4375H99.1484C99.1484 40.9219 99.7318 38.5339 100.898 36.2734C102.065 34.013 103.76 32.026 105.984 30.3125C108.208 28.5625 110.852 27.1953 113.914 26.2109C117.013 25.2266 120.477 24.7344 124.305 24.7344C128.898 24.7344 132.982 25.5 136.555 27.0312C140.128 28.5625 142.935 30.8594 144.977 33.9219C147.055 36.9844 148.094 40.8125 148.094 45.4062V70.7266C148.094 73.9714 148.294 76.6328 148.695 78.7109C149.096 80.7526 149.68 82.5391 150.445 84.0703V85H134.531C133.766 83.3958 133.182 81.3906 132.781 78.9844C132.417 76.5417 132.234 74.099 132.234 71.6562ZM134.312 48.9609L134.422 57.875H125.617C123.539 57.875 121.734 58.112 120.203 58.5859C118.672 59.0599 117.414 59.7344 116.43 60.6094C115.445 61.4479 114.716 62.4323 114.242 63.5625C113.805 64.6927 113.586 65.9323 113.586 67.2812C113.586 68.6302 113.896 69.8516 114.516 70.9453C115.135 72.0026 116.029 72.8411 117.195 73.4609C118.362 74.0443 119.729 74.3359 121.297 74.3359C123.667 74.3359 125.727 73.862 127.477 72.9141C129.227 71.9661 130.576 70.7995 131.523 69.4141C132.508 68.0286 133.018 66.7161 133.055 65.4766L137.211 72.1484C136.628 73.6432 135.826 75.1927 134.805 76.7969C133.82 78.401 132.562 79.9141 131.031 81.3359C129.5 82.7214 127.659 83.8698 125.508 84.7812C123.357 85.6562 120.805 86.0938 117.852 86.0938C114.096 86.0938 110.688 85.3464 107.625 83.8516C104.599 82.3203 102.193 80.224 100.406 77.5625C98.6562 74.8646 97.7812 71.8021 97.7812 68.375C97.7812 65.276 98.3646 62.5234 99.5312 60.1172C100.698 57.7109 102.411 55.6875 104.672 54.0469C106.969 52.3698 109.831 51.112 113.258 50.2734C116.685 49.3984 120.659 48.9609 125.18 48.9609H134.312ZM184.68 73.7891C186.612 73.7891 188.326 73.4245 189.82 72.6953C191.315 71.9297 192.482 70.8724 193.32 69.5234C194.195 68.138 194.651 66.5156 194.688 64.6562H209.508C209.471 68.8125 208.359 72.513 206.172 75.7578C203.984 78.9661 201.049 81.5 197.367 83.3594C193.685 85.1823 189.565 86.0938 185.008 86.0938C180.414 86.0938 176.404 85.3281 172.977 83.7969C169.586 82.2656 166.76 80.151 164.5 77.4531C162.24 74.7188 160.544 71.5469 159.414 67.9375C158.284 64.2917 157.719 60.3906 157.719 56.2344V54.6484C157.719 50.4557 158.284 46.5547 159.414 42.9453C160.544 39.2995 162.24 36.1276 164.5 33.4297C166.76 30.6953 169.586 28.5625 172.977 27.0312C176.367 25.5 180.341 24.7344 184.898 24.7344C189.747 24.7344 193.995 25.6641 197.641 27.5234C201.323 29.3828 204.203 32.0443 206.281 35.5078C208.396 38.9349 209.471 43 209.508 47.7031H194.688C194.651 45.7344 194.232 43.9479 193.43 42.3438C192.664 40.7396 191.534 39.4635 190.039 38.5156C188.581 37.5312 186.776 37.0391 184.625 37.0391C182.328 37.0391 180.451 37.5312 178.992 38.5156C177.534 39.4635 176.404 40.776 175.602 42.4531C174.799 44.0938 174.234 45.9714 173.906 48.0859C173.615 50.1641 173.469 52.3516 173.469 54.6484V56.2344C173.469 58.5312 173.615 60.737 173.906 62.8516C174.198 64.9661 174.745 66.8438 175.547 68.4844C176.385 70.125 177.534 71.4193 178.992 72.3672C180.451 73.3151 182.346 73.7891 184.68 73.7891ZM234.391 0.945312V85H218.641V0.945312H234.391ZM271.688 25.8281L245.984 55.1406L232.203 69.0859L226.461 57.7109L237.398 43.8203L252.766 25.8281H271.688ZM255.336 85L237.836 57.6562L248.719 48.1406L273.492 85H255.336ZM339.719 18.9922L318.062 85H300.617L330.203 5.375H341.305L339.719 18.9922ZM357.711 85L336 18.9922L334.25 5.375H345.461L375.211 85H357.711ZM356.727 55.3594V68.2109H314.672V55.3594H356.727ZM395.281 38.4609V85H379.531V25.8281H394.297L395.281 38.4609ZM392.984 53.3359H388.719C388.719 48.9609 389.284 45.0234 390.414 41.5234C391.544 37.987 393.13 34.9792 395.172 32.5C397.214 29.9844 399.638 28.0703 402.445 26.7578C405.289 25.4089 408.461 24.7344 411.961 24.7344C414.732 24.7344 417.266 25.1354 419.562 25.9375C421.859 26.7396 423.828 28.0156 425.469 29.7656C427.146 31.5156 428.422 33.8307 429.297 36.7109C430.208 39.5911 430.664 43.1094 430.664 47.2656V85H414.805V47.2109C414.805 44.5859 414.44 42.5443 413.711 41.0859C412.982 39.6276 411.906 38.6068 410.484 38.0234C409.099 37.4036 407.385 37.0938 405.344 37.0938C403.229 37.0938 401.388 37.513 399.82 38.3516C398.289 39.1901 397.013 40.3568 395.992 41.8516C395.008 43.3099 394.26 45.0234 393.75 46.9922C393.24 48.9609 392.984 51.0755 392.984 53.3359ZM474.578 71.6562V45.2969C474.578 43.401 474.268 41.7786 473.648 40.4297C473.029 39.0443 472.062 37.9688 470.75 37.2031C469.474 36.4375 467.815 36.0547 465.773 36.0547C464.023 36.0547 462.51 36.3646 461.234 36.9844C459.958 37.5677 458.974 38.4245 458.281 39.5547C457.589 40.6484 457.242 41.9427 457.242 43.4375H441.492C441.492 40.9219 442.076 38.5339 443.242 36.2734C444.409 34.013 446.104 32.026 448.328 30.3125C450.552 28.5625 453.195 27.1953 456.258 26.2109C459.357 25.2266 462.82 24.7344 466.648 24.7344C471.242 24.7344 475.326 25.5 478.898 27.0312C482.471 28.5625 485.279 30.8594 487.32 33.9219C489.398 36.9844 490.438 40.8125 490.438 45.4062V70.7266C490.438 73.9714 490.638 76.6328 491.039 78.7109C491.44 80.7526 492.023 82.5391 492.789 84.0703V85H476.875C476.109 83.3958 475.526 81.3906 475.125 78.9844C474.76 76.5417 474.578 74.099 474.578 71.6562ZM476.656 48.9609L476.766 57.875H467.961C465.883 57.875 464.078 58.112 462.547 58.5859C461.016 59.0599 459.758 59.7344 458.773 60.6094C457.789 61.4479 457.06 62.4323 456.586 63.5625C456.148 64.6927 455.93 65.9323 455.93 67.2812C455.93 68.6302 456.24 69.8516 456.859 70.9453C457.479 72.0026 458.372 72.8411 459.539 73.4609C460.706 74.0443 462.073 74.3359 463.641 74.3359C466.01 74.3359 468.07 73.862 469.82 72.9141C471.57 71.9661 472.919 70.7995 473.867 69.4141C474.852 68.0286 475.362 66.7161 475.398 65.4766L479.555 72.1484C478.971 73.6432 478.169 75.1927 477.148 76.7969C476.164 78.401 474.906 79.9141 473.375 81.3359C471.844 82.7214 470.003 83.8698 467.852 84.7812C465.701 85.6562 463.148 86.0938 460.195 86.0938C456.44 86.0938 453.031 85.3464 449.969 83.8516C446.943 82.3203 444.536 80.224 442.75 77.5625C441 74.8646 440.125 71.8021 440.125 68.375C440.125 65.276 440.708 62.5234 441.875 60.1172C443.042 57.7109 444.755 55.6875 447.016 54.0469C449.312 52.3698 452.174 51.112 455.602 50.2734C459.029 49.3984 463.003 48.9609 467.523 48.9609H476.656ZM519.203 1V85H503.398V1H519.203ZM549.773 78.3281L565.469 25.8281H582.367L558.578 93.9141C558.068 95.4089 557.375 97.013 556.5 98.7266C555.661 100.44 554.513 102.062 553.055 103.594C551.633 105.161 549.828 106.438 547.641 107.422C545.49 108.406 542.846 108.898 539.711 108.898C538.216 108.898 536.995 108.807 536.047 108.625C535.099 108.443 533.969 108.188 532.656 107.859V96.3203C533.057 96.3203 533.477 96.3203 533.914 96.3203C534.352 96.3568 534.771 96.375 535.172 96.375C537.25 96.375 538.945 96.138 540.258 95.6641C541.57 95.1901 542.628 94.4609 543.43 93.4766C544.232 92.5286 544.87 91.2891 545.344 89.7578L549.773 78.3281ZM543.211 25.8281L556.062 68.7031L558.305 85.3828L547.586 86.5312L526.312 25.8281H543.211ZM620.648 68.6484C620.648 67.5182 620.32 66.4974 619.664 65.5859C619.008 64.6745 617.786 63.8359 616 63.0703C614.25 62.2682 611.716 61.5391 608.398 60.8828C605.409 60.2266 602.62 59.4062 600.031 58.4219C597.479 57.401 595.255 56.1797 593.359 54.7578C591.5 53.3359 590.042 51.6589 588.984 49.7266C587.927 47.7578 587.398 45.5156 587.398 43C587.398 40.5208 587.927 38.1875 588.984 36C590.078 33.8125 591.628 31.8802 593.633 30.2031C595.674 28.4896 598.154 27.1589 601.07 26.2109C604.023 25.2266 607.341 24.7344 611.023 24.7344C616.164 24.7344 620.576 25.5547 624.258 27.1953C627.977 28.8359 630.82 31.0964 632.789 33.9766C634.794 36.8203 635.797 40.0651 635.797 43.7109H620.047C620.047 42.1797 619.719 40.8125 619.062 39.6094C618.443 38.3698 617.458 37.4036 616.109 36.7109C614.797 35.9818 613.083 35.6172 610.969 35.6172C609.219 35.6172 607.706 35.9271 606.43 36.5469C605.154 37.1302 604.169 37.9323 603.477 38.9531C602.82 39.9375 602.492 41.0312 602.492 42.2344C602.492 43.1458 602.674 43.9661 603.039 44.6953C603.44 45.388 604.078 46.026 604.953 46.6094C605.828 47.1927 606.958 47.7396 608.344 48.25C609.766 48.724 611.516 49.1615 613.594 49.5625C617.859 50.4375 621.669 51.5859 625.023 53.0078C628.378 54.3932 631.039 56.2891 633.008 58.6953C634.977 61.0651 635.961 64.1823 635.961 68.0469C635.961 70.6719 635.378 73.0781 634.211 75.2656C633.044 77.4531 631.367 79.3672 629.18 81.0078C626.992 82.612 624.367 83.8698 621.305 84.7812C618.279 85.6562 614.87 86.0938 611.078 86.0938C605.573 86.0938 600.906 85.1094 597.078 83.1406C593.286 81.1719 590.406 78.6745 588.438 75.6484C586.505 72.5859 585.539 69.4505 585.539 66.2422H600.469C600.542 68.3932 601.089 70.125 602.109 71.4375C603.167 72.75 604.497 73.6979 606.102 74.2812C607.742 74.8646 609.51 75.1562 611.406 75.1562C613.448 75.1562 615.143 74.8828 616.492 74.3359C617.841 73.7526 618.862 72.987 619.555 72.0391C620.284 71.0547 620.648 69.9245 620.648 68.6484ZM662.812 25.8281V85H647.008V25.8281H662.812ZM646.023 10.4062C646.023 8.10938 646.826 6.21354 648.43 4.71875C650.034 3.22396 652.185 2.47656 654.883 2.47656C657.544 2.47656 659.677 3.22396 661.281 4.71875C662.922 6.21354 663.742 8.10938 663.742 10.4062C663.742 12.7031 662.922 14.599 661.281 16.0938C659.677 17.5885 657.544 18.3359 654.883 18.3359C652.185 18.3359 650.034 17.5885 648.43 16.0938C646.826 14.599 646.023 12.7031 646.023 10.4062ZM707.82 68.6484C707.82 67.5182 707.492 66.4974 706.836 65.5859C706.18 64.6745 704.958 63.8359 703.172 63.0703C701.422 62.2682 698.888 61.5391 695.57 60.8828C692.581 60.2266 689.792 59.4062 687.203 58.4219C684.651 57.401 682.427 56.1797 680.531 54.7578C678.672 53.3359 677.214 51.6589 676.156 49.7266C675.099 47.7578 674.57 45.5156 674.57 43C674.57 40.5208 675.099 38.1875 676.156 36C677.25 33.8125 678.799 31.8802 680.805 30.2031C682.846 28.4896 685.326 27.1589 688.242 26.2109C691.195 25.2266 694.513 24.7344 698.195 24.7344C703.336 24.7344 707.747 25.5547 711.43 27.1953C715.148 28.8359 717.992 31.0964 719.961 33.9766C721.966 36.8203 722.969 40.0651 722.969 43.7109H707.219C707.219 42.1797 706.891 40.8125 706.234 39.6094C705.615 38.3698 704.63 37.4036 703.281 36.7109C701.969 35.9818 700.255 35.6172 698.141 35.6172C696.391 35.6172 694.878 35.9271 693.602 36.5469C692.326 37.1302 691.341 37.9323 690.648 38.9531C689.992 39.9375 689.664 41.0312 689.664 42.2344C689.664 43.1458 689.846 43.9661 690.211 44.6953C690.612 45.388 691.25 46.026 692.125 46.6094C693 47.1927 694.13 47.7396 695.516 48.25C696.938 48.724 698.688 49.1615 700.766 49.5625C705.031 50.4375 708.841 51.5859 712.195 53.0078C715.549 54.3932 718.211 56.2891 720.18 58.6953C722.148 61.0651 723.133 64.1823 723.133 68.0469C723.133 70.6719 722.549 73.0781 721.383 75.2656C720.216 77.4531 718.539 79.3672 716.352 81.0078C714.164 82.612 711.539 83.8698 708.477 84.7812C705.451 85.6562 702.042 86.0938 698.25 86.0938C692.745 86.0938 688.078 85.1094 684.25 83.1406C680.458 81.1719 677.578 78.6745 675.609 75.6484C673.677 72.5859 672.711 69.4505 672.711 66.2422H687.641C687.714 68.3932 688.26 70.125 689.281 71.4375C690.339 72.75 691.669 73.6979 693.273 74.2812C694.914 74.8646 696.682 75.1562 698.578 75.1562C700.62 75.1562 702.315 74.8828 703.664 74.3359C705.013 73.7526 706.034 72.987 706.727 72.0391C707.456 71.0547 707.82 69.9245 707.82 68.6484ZM803.688 64.1641C803.688 62.7422 803.469 61.4661 803.031 60.3359C802.63 59.1693 801.865 58.112 800.734 57.1641C799.604 56.1797 798.018 55.2135 795.977 54.2656C793.935 53.3177 791.292 52.3333 788.047 51.3125C784.438 50.1458 781.01 48.8333 777.766 47.375C774.557 45.9167 771.714 44.2214 769.234 42.2891C766.792 40.3203 764.859 38.0417 763.438 35.4531C762.052 32.8646 761.359 29.8568 761.359 26.4297C761.359 23.112 762.089 20.1042 763.547 17.4062C765.005 14.6719 767.047 12.3385 769.672 10.4062C772.297 8.4375 775.396 6.92448 778.969 5.86719C782.578 4.8099 786.534 4.28125 790.836 4.28125C796.706 4.28125 801.828 5.33854 806.203 7.45312C810.578 9.56771 813.969 12.4661 816.375 16.1484C818.818 19.8307 820.039 24.0417 820.039 28.7812H803.742C803.742 26.4479 803.25 24.4062 802.266 22.6562C801.318 20.8698 799.859 19.4661 797.891 18.4453C795.958 17.4245 793.516 16.9141 790.562 16.9141C787.719 16.9141 785.349 17.3516 783.453 18.2266C781.557 19.0651 780.135 20.2135 779.188 21.6719C778.24 23.0938 777.766 24.6979 777.766 26.4844C777.766 27.8333 778.094 29.0547 778.75 30.1484C779.443 31.2422 780.464 32.263 781.812 33.2109C783.161 34.1589 784.82 35.0521 786.789 35.8906C788.758 36.7292 791.036 37.5495 793.625 38.3516C797.964 39.6641 801.773 41.1406 805.055 42.7812C808.372 44.4219 811.143 46.263 813.367 48.3047C815.591 50.3464 817.268 52.6615 818.398 55.25C819.529 57.8385 820.094 60.7734 820.094 64.0547C820.094 67.5182 819.419 70.6172 818.07 73.3516C816.721 76.0859 814.771 78.401 812.219 80.2969C809.667 82.1927 806.622 83.6328 803.086 84.6172C799.549 85.6016 795.594 86.0938 791.219 86.0938C787.281 86.0938 783.398 85.5833 779.57 84.5625C775.742 83.5052 772.26 81.9193 769.125 79.8047C766.026 77.6901 763.547 74.9922 761.688 71.7109C759.828 68.4297 758.898 64.5469 758.898 60.0625H775.359C775.359 62.5417 775.742 64.638 776.508 66.3516C777.273 68.0651 778.349 69.4505 779.734 70.5078C781.156 71.5651 782.833 72.3307 784.766 72.8047C786.734 73.2786 788.885 73.5156 791.219 73.5156C794.062 73.5156 796.396 73.1146 798.219 72.3125C800.078 71.5104 801.445 70.3984 802.32 68.9766C803.232 67.5547 803.688 65.9505 803.688 64.1641ZM827.75 56.0156V54.8672C827.75 50.5286 828.37 46.5365 829.609 42.8906C830.849 39.2083 832.654 36.0182 835.023 33.3203C837.393 30.6224 840.31 28.526 843.773 27.0312C847.237 25.5 851.211 24.7344 855.695 24.7344C860.18 24.7344 864.172 25.5 867.672 27.0312C871.172 28.526 874.107 30.6224 876.477 33.3203C878.883 36.0182 880.706 39.2083 881.945 42.8906C883.185 46.5365 883.805 50.5286 883.805 54.8672V56.0156C883.805 60.3177 883.185 64.3099 881.945 67.9922C880.706 71.638 878.883 74.8281 876.477 77.5625C874.107 80.2604 871.19 82.3568 867.727 83.8516C864.263 85.3464 860.289 86.0938 855.805 86.0938C851.32 86.0938 847.328 85.3464 843.828 83.8516C840.365 82.3568 837.43 80.2604 835.023 77.5625C832.654 74.8281 830.849 71.638 829.609 67.9922C828.37 64.3099 827.75 60.3177 827.75 56.0156ZM843.5 54.8672V56.0156C843.5 58.4948 843.719 60.8099 844.156 62.9609C844.594 65.112 845.286 67.0078 846.234 68.6484C847.219 70.2526 848.495 71.5104 850.062 72.4219C851.63 73.3333 853.544 73.7891 855.805 73.7891C857.992 73.7891 859.87 73.3333 861.438 72.4219C863.005 71.5104 864.263 70.2526 865.211 68.6484C866.159 67.0078 866.852 65.112 867.289 62.9609C867.763 60.8099 868 58.4948 868 56.0156V54.8672C868 52.4609 867.763 50.2005 867.289 48.0859C866.852 45.9349 866.141 44.0391 865.156 42.3984C864.208 40.7214 862.951 39.4089 861.383 38.4609C859.815 37.513 857.919 37.0391 855.695 37.0391C853.471 37.0391 851.576 37.513 850.008 38.4609C848.477 39.4089 847.219 40.7214 846.234 42.3984C845.286 44.0391 844.594 45.9349 844.156 48.0859C843.719 50.2005 843.5 52.4609 843.5 54.8672ZM910.109 1V85H894.305V1H910.109ZM958.125 70.8359V25.8281H973.875V85H959.055L958.125 70.8359ZM959.875 58.6953L964.523 58.5859C964.523 62.5234 964.068 66.1875 963.156 69.5781C962.245 72.9323 960.878 75.849 959.055 78.3281C957.232 80.7708 954.935 82.6849 952.164 84.0703C949.393 85.4193 946.13 86.0938 942.375 86.0938C939.495 86.0938 936.833 85.6927 934.391 84.8906C931.984 84.0521 929.906 82.7578 928.156 81.0078C926.443 79.2214 925.094 76.9427 924.109 74.1719C923.161 71.3646 922.688 67.9922 922.688 64.0547V25.8281H938.438V64.1641C938.438 65.9141 938.638 67.3906 939.039 68.5938C939.477 69.7969 940.078 70.7812 940.844 71.5469C941.609 72.3125 942.503 72.8594 943.523 73.1875C944.581 73.5156 945.747 73.6797 947.023 73.6797C950.268 73.6797 952.82 73.0234 954.68 71.7109C956.576 70.3984 957.906 68.612 958.672 66.3516C959.474 64.0547 959.875 61.5026 959.875 58.6953ZM1014.89 25.8281V36.9844H980.438V25.8281H1014.89ZM988.969 11.2266H1004.72V67.1719C1004.72 68.8854 1004.94 70.1979 1005.38 71.1094C1005.85 72.0208 1006.54 72.6589 1007.45 73.0234C1008.36 73.3516 1009.51 73.5156 1010.9 73.5156C1011.88 73.5156 1012.76 73.4792 1013.52 73.4062C1014.33 73.2969 1015 73.1875 1015.55 73.0781L1015.6 84.6719C1014.25 85.1094 1012.79 85.4557 1011.23 85.7109C1009.66 85.9661 1007.93 86.0938 1006.03 86.0938C1002.57 86.0938 999.542 85.5286 996.953 84.3984C994.401 83.2318 992.432 81.3724 991.047 78.8203C989.661 76.2682 988.969 72.9141 988.969 68.7578V11.2266ZM1040.48 25.8281V85H1024.68V25.8281H1040.48ZM1023.7 10.4062C1023.7 8.10938 1024.5 6.21354 1026.1 4.71875C1027.71 3.22396 1029.86 2.47656 1032.55 2.47656C1035.22 2.47656 1037.35 3.22396 1038.95 4.71875C1040.59 6.21354 1041.41 8.10938 1041.41 10.4062C1041.41 12.7031 1040.59 14.599 1038.95 16.0938C1037.35 17.5885 1035.22 18.3359 1032.55 18.3359C1029.86 18.3359 1027.71 17.5885 1026.1 16.0938C1024.5 14.599 1023.7 12.7031 1023.7 10.4062ZM1050.98 56.0156V54.8672C1050.98 50.5286 1051.6 46.5365 1052.84 42.8906C1054.08 39.2083 1055.89 36.0182 1058.26 33.3203C1060.63 30.6224 1063.54 28.526 1067.01 27.0312C1070.47 25.5 1074.45 24.7344 1078.93 24.7344C1083.41 24.7344 1087.41 25.5 1090.91 27.0312C1094.41 28.526 1097.34 30.6224 1099.71 33.3203C1102.12 36.0182 1103.94 39.2083 1105.18 42.8906C1106.42 46.5365 1107.04 50.5286 1107.04 54.8672V56.0156C1107.04 60.3177 1106.42 64.3099 1105.18 67.9922C1103.94 71.638 1102.12 74.8281 1099.71 77.5625C1097.34 80.2604 1094.42 82.3568 1090.96 83.8516C1087.5 85.3464 1083.52 86.0938 1079.04 86.0938C1074.55 86.0938 1070.56 85.3464 1067.06 83.8516C1063.6 82.3568 1060.66 80.2604 1058.26 77.5625C1055.89 74.8281 1054.08 71.638 1052.84 67.9922C1051.6 64.3099 1050.98 60.3177 1050.98 56.0156ZM1066.73 54.8672V56.0156C1066.73 58.4948 1066.95 60.8099 1067.39 62.9609C1067.83 65.112 1068.52 67.0078 1069.47 68.6484C1070.45 70.2526 1071.73 71.5104 1073.3 72.4219C1074.86 73.3333 1076.78 73.7891 1079.04 73.7891C1081.23 73.7891 1083.1 73.3333 1084.67 72.4219C1086.24 71.5104 1087.5 70.2526 1088.45 68.6484C1089.39 67.0078 1090.09 65.112 1090.52 62.9609C1091 60.8099 1091.23 58.4948 1091.23 56.0156V54.8672C1091.23 52.4609 1091 50.2005 1090.52 48.0859C1090.09 45.9349 1089.38 44.0391 1088.39 42.3984C1087.44 40.7214 1086.18 39.4089 1084.62 38.4609C1083.05 37.513 1081.15 37.0391 1078.93 37.0391C1076.71 37.0391 1074.81 37.513 1073.24 38.4609C1071.71 39.4089 1070.45 40.7214 1069.47 42.3984C1068.52 44.0391 1067.83 45.9349 1067.39 48.0859C1066.95 50.2005 1066.73 52.4609 1066.73 54.8672ZM1132.14 38.4609V85H1116.39V25.8281H1131.16L1132.14 38.4609ZM1129.84 53.3359H1125.58C1125.58 48.9609 1126.14 45.0234 1127.27 41.5234C1128.4 37.987 1129.99 34.9792 1132.03 32.5C1134.07 29.9844 1136.5 28.0703 1139.3 26.7578C1142.15 25.4089 1145.32 24.7344 1148.82 24.7344C1151.59 24.7344 1154.12 25.1354 1156.42 25.9375C1158.72 26.7396 1160.69 28.0156 1162.33 29.7656C1164.01 31.5156 1165.28 33.8307 1166.16 36.7109C1167.07 39.5911 1167.52 43.1094 1167.52 47.2656V85H1151.66V47.2109C1151.66 44.5859 1151.3 42.5443 1150.57 41.0859C1149.84 39.6276 1148.77 38.6068 1147.34 38.0234C1145.96 37.4036 1144.24 37.0938 1142.2 37.0938C1140.09 37.0938 1138.25 37.513 1136.68 38.3516C1135.15 39.1901 1133.87 40.3568 1132.85 41.8516C1131.87 43.3099 1131.12 45.0234 1130.61 46.9922C1130.1 48.9609 1129.84 51.0755 1129.84 53.3359Z" fill="#FFFBFE"/>
</svg>
