<svg width="1070" height="200" viewBox="0 0 1070 200" fill="none" xmlns="http://www.w3.org/2000/svg">
<path d="M115.751 131.502H162.251C161.631 144.965 157.999 156.833 151.357 167.107C144.714 177.382 135.503 185.397 123.723 191.154C112.031 196.823 98.2145 199.657 82.2718 199.657C69.3405 199.657 57.7821 197.487 47.5965 193.147C37.4995 188.807 28.9081 182.563 21.8225 174.415C14.8254 166.266 9.46693 156.39 5.74697 144.788C2.11558 133.185 0.299891 120.121 0.299891 105.595V95.0998C0.299891 80.5742 2.20415 67.5101 6.01268 55.9074C9.90978 44.2161 15.4011 34.2962 22.4868 26.1477C29.661 17.9107 38.2523 11.6222 48.2608 7.28223C58.2692 2.94228 69.3848 0.772309 81.6075 0.772309C98.4359 0.772309 112.651 3.7837 124.254 9.80649C135.857 15.8293 144.847 24.1106 151.224 34.6505C157.601 45.1018 161.365 57.0145 162.517 70.3886H116.017C115.84 63.1259 114.6 57.0588 112.297 52.1874C109.994 47.2275 106.363 43.5075 101.403 41.0275C96.443 38.5476 89.8446 37.3076 81.6075 37.3076C75.8504 37.3076 70.8462 38.3704 66.5948 40.4961C62.3434 42.6218 58.8006 45.9875 55.9664 50.5932C53.1321 55.1988 51.0064 61.1773 49.5893 68.5287C48.2608 75.7914 47.5965 84.5599 47.5965 94.8341V105.595C47.5965 115.87 48.2165 124.638 49.4565 131.901C50.6964 139.164 52.6893 145.098 55.435 149.703C58.1806 154.309 61.7235 157.719 66.0634 159.933C70.4919 162.059 75.8947 163.122 82.2718 163.122C89.3574 163.122 95.3359 162.015 100.207 159.8C105.079 157.498 108.843 154.043 111.5 149.438C114.157 144.743 115.574 138.765 115.751 131.502ZM312.112 161.129V197H214.33V161.129H312.112ZM230.937 3.56228V197H184.305V3.56228H230.937ZM381.33 3.56228V197H334.83V3.56228H381.33ZM547.266 161.129V197H444.17V161.129H547.266ZM460.777 3.56228V197H414.145V3.56228H460.777ZM533.981 80.3528V115.028H444.17V80.3528H533.981ZM547.665 3.56228V39.5661H444.17V3.56228H547.665ZM727.95 3.56228V197H681.45L613.03 76.6328V197H566.397V3.56228H613.03L681.45 123.929V3.56228H727.95ZM847.121 3.56228V197H800.489V3.56228H847.121ZM905.312 3.56228V39.5661H743.627V3.56228H905.312ZM1022.62 145.585C1022.62 142.573 1022.18 139.872 1021.3 137.481C1020.41 135.001 1018.77 132.698 1016.38 130.572C1013.99 128.447 1010.53 126.321 1006.02 124.195C1001.59 121.981 995.742 119.678 988.48 117.287C979.977 114.452 971.784 111.264 963.901 107.721C956.019 104.09 948.977 99.8826 942.777 95.0998C936.577 90.2284 931.662 84.5599 928.03 78.0943C924.399 71.54 922.583 63.923 922.583 55.2431C922.583 46.9175 924.443 39.4333 928.163 32.7905C931.883 26.0592 937.065 20.3464 943.707 15.6521C950.439 10.8693 958.321 7.23795 967.356 4.75798C976.39 2.18944 986.265 0.905165 996.982 0.905165C1011.15 0.905165 1023.64 3.38514 1034.45 8.34508C1045.34 13.2164 1053.84 20.1692 1059.96 29.2034C1066.16 38.149 1069.26 48.7332 1069.26 60.9559H1022.89C1022.89 56.0845 1021.87 51.7889 1019.83 48.0689C1017.89 44.3489 1014.92 41.4261 1010.93 39.3004C1006.95 37.1747 1001.94 36.1119 995.92 36.1119C990.074 36.1119 985.158 36.9976 981.173 38.769C977.187 40.5404 974.176 42.9318 972.138 45.9432C970.101 48.866 969.083 52.0988 969.083 55.6417C969.083 58.5645 969.88 61.2216 971.474 63.613C973.157 65.9158 975.504 68.0858 978.516 70.1229C981.615 72.16 985.335 74.1086 989.675 75.9686C994.104 77.8285 999.064 79.6442 1004.56 81.4156C1014.83 84.6928 1023.95 88.3684 1031.92 92.4427C1039.98 96.4283 1046.76 100.99 1052.25 106.127C1057.83 111.175 1062.04 116.932 1064.87 123.398C1067.79 129.864 1069.26 137.171 1069.26 145.319C1069.26 153.999 1067.57 161.705 1064.21 168.436C1060.84 175.167 1056.01 180.88 1049.73 185.574C1043.44 190.18 1035.91 193.679 1027.14 196.07C1018.37 198.461 1008.59 199.657 997.78 199.657C987.86 199.657 978.073 198.417 968.419 195.937C958.853 193.369 950.173 189.472 942.379 184.246C934.585 178.932 928.34 172.156 923.646 163.919C919.041 155.593 916.738 145.718 916.738 134.292H963.503C963.503 139.961 964.256 144.743 965.761 148.641C967.267 152.538 969.481 155.682 972.404 158.073C975.327 160.376 978.914 162.059 983.165 163.122C987.417 164.096 992.288 164.583 997.78 164.583C1003.71 164.583 1008.5 163.742 1012.13 162.059C1015.76 160.288 1018.42 157.985 1020.1 155.15C1021.78 152.228 1022.62 149.039 1022.62 145.585Z" fill="#D9D9D9" fill-opacity="0.1"/>
</svg>
