<svg width="515" height="200" viewBox="0 0 515 200" fill="none" xmlns="http://www.w3.org/2000/svg">
<path d="M-439.249 131.502H-392.749C-393.369 144.965 -397.001 156.833 -403.643 167.107C-410.286 177.382 -419.497 185.397 -431.277 191.154C-442.969 196.823 -456.786 199.657 -472.728 199.657C-485.659 199.657 -497.218 197.487 -507.404 193.147C-517.501 188.807 -526.092 182.563 -533.178 174.415C-540.175 166.266 -545.533 156.39 -549.253 144.788C-552.884 133.185 -554.7 120.121 -554.7 105.595V95.0998C-554.7 80.5742 -552.796 67.5101 -548.987 55.9074C-545.09 44.2161 -539.599 34.2962 -532.513 26.1477C-525.339 17.9107 -516.748 11.6222 -506.739 7.28223C-496.731 2.94228 -485.615 0.772309 -473.392 0.772309C-456.564 0.772309 -442.349 3.7837 -430.746 9.80649C-419.143 15.8293 -410.153 24.1106 -403.776 34.6505C-397.399 45.1018 -393.635 57.0145 -392.483 70.3886H-438.983C-439.16 63.1259 -440.4 57.0588 -442.703 52.1874C-445.006 47.2275 -448.637 43.5075 -453.597 41.0275C-458.557 38.5476 -465.155 37.3076 -473.392 37.3076C-479.15 37.3076 -484.154 38.3704 -488.405 40.4961C-492.657 42.6218 -496.199 45.9875 -499.034 50.5932C-501.868 55.1988 -503.994 61.1773 -505.411 68.5287C-506.739 75.7914 -507.404 84.5599 -507.404 94.8341V105.595C-507.404 115.87 -506.784 124.638 -505.544 131.901C-504.304 139.164 -502.311 145.098 -499.565 149.703C-496.819 154.309 -493.277 157.719 -488.937 159.933C-484.508 162.059 -479.105 163.122 -472.728 163.122C-465.643 163.122 -459.664 162.015 -454.793 159.8C-449.921 157.498 -446.157 154.043 -443.5 149.438C-440.843 144.743 -439.426 138.765 -439.249 131.502ZM-242.888 161.129V197H-340.67V161.129H-242.888ZM-324.063 3.56228V197H-370.695V3.56228H-324.063ZM-173.67 3.56228V197H-220.17V3.56228H-173.67ZM-7.7337 161.129V197H-110.83V161.129H-7.7337ZM-94.2227 3.56228V197H-140.855V3.56228H-94.2227ZM-21.0193 80.3528V115.028H-110.83V80.3528H-21.0193ZM-7.33513 3.56228V39.5661H-110.83V3.56228H-7.33513ZM172.95 3.56228V197H126.45L58.0298 76.6328V197H11.3975V3.56228H58.0298L126.45 123.929V3.56228H172.95ZM292.121 3.56228V197H245.489V3.56228H292.121ZM350.312 3.56228V39.5661H188.627V3.56228H350.312ZM467.624 145.585C467.624 142.573 467.181 139.872 466.295 137.481C465.409 135.001 463.771 132.698 461.379 130.572C458.988 128.447 455.534 126.321 451.017 124.195C446.588 121.981 440.742 119.678 433.48 117.287C424.977 114.452 416.784 111.264 408.901 107.721C401.019 104.09 393.977 99.8826 387.777 95.0998C381.577 90.2284 376.662 84.5599 373.03 78.0943C369.399 71.54 367.583 63.923 367.583 55.2431C367.583 46.9175 369.443 39.4333 373.163 32.7905C376.883 26.0592 382.065 20.3464 388.707 15.6521C395.439 10.8693 403.321 7.23795 412.356 4.75798C421.39 2.18944 431.265 0.905165 441.982 0.905165C456.154 0.905165 468.642 3.38514 479.448 8.34508C490.342 13.2164 498.845 20.1692 504.956 29.2034C511.156 38.149 514.256 48.7332 514.256 60.9559H467.889C467.889 56.0845 466.871 51.7889 464.834 48.0689C462.885 44.3489 459.918 41.4261 455.932 39.3004C451.947 37.1747 446.942 36.1119 440.92 36.1119C435.074 36.1119 430.158 36.9976 426.173 38.769C422.187 40.5404 419.176 42.9318 417.138 45.9432C415.101 48.866 414.083 52.0988 414.083 55.6417C414.083 58.5645 414.88 61.2216 416.474 63.613C418.157 65.9158 420.504 68.0858 423.516 70.1229C426.615 72.16 430.335 74.1086 434.675 75.9686C439.104 77.8285 444.064 79.6442 449.555 81.4156C459.829 84.6928 468.952 88.3684 476.923 92.4427C484.983 96.4283 491.759 100.99 497.25 106.127C502.83 111.175 507.037 116.932 509.872 123.398C512.794 129.864 514.256 137.171 514.256 145.319C514.256 153.999 512.573 161.705 509.207 168.436C505.842 175.167 501.015 180.88 494.726 185.574C488.438 190.18 480.909 193.679 472.141 196.07C463.372 198.461 453.585 199.657 442.78 199.657C432.86 199.657 423.073 198.417 413.419 195.937C403.853 193.369 395.173 189.472 387.379 184.246C379.585 178.932 373.34 172.156 368.646 163.919C364.041 155.593 361.738 145.718 361.738 134.292H408.503C408.503 139.961 409.256 144.743 410.761 148.641C412.267 152.538 414.481 155.682 417.404 158.073C420.327 160.376 423.914 162.059 428.165 163.122C432.417 164.096 437.288 164.583 442.78 164.583C448.714 164.583 453.497 163.742 457.128 162.059C460.759 160.288 463.416 157.985 465.099 155.15C466.782 152.228 467.624 149.039 467.624 145.585Z" fill="#D9D9D9" fill-opacity="0.1"/>
</svg>
