<svg width="180" height="180" viewBox="0 0 180 180" fill="none" xmlns="http://www.w3.org/2000/svg">
<path d="M130.504 0H19.4961V180H160.5V29.9962L130.504 0Z" fill="#E8E8E8"/>
<path d="M125.142 36.6328H53.9648V107.81H125.142V36.6328Z" fill="#007934"/>
<path d="M118.968 42.8076H60.1406V101.635H118.968V42.8076Z" fill="white"/>
<path d="M114.354 81.5869H96.1992L101.561 88.2837L96.1992 94.98H114.354L108.991 88.2837L114.354 81.5869Z" fill="#007934"/>
<path d="M109.163 58.1133H91.7884L87.9372 62.9228L84.0859 58.1133H66.7109L79.2497 73.7725L66.7109 89.4317H109.163L96.6247 73.7725L109.163 58.1133Z" fill="#007934"/>
<path d="M74.1549 60.3281H71.6406L93.1726 87.2176H95.6863L74.1549 60.3281Z" fill="white"/>
<path d="M135.146 14.9984H19.4961V0H130.504L135.146 14.9984Z" fill="#007934"/>
<path d="M80.7386 162.595H71.8344L66.2816 153.691L60.7876 162.595H52.0781L61.5279 148.021L52.6433 134.11H61.177L66.3208 142.917L71.2698 134.11H80.057L71.0365 148.625L80.7386 162.595Z" fill="#A4A9AD"/>
<path d="M83.9336 162.595V134.11H91.6296V156.38H102.599V162.595H83.9336V162.595Z" fill="#A4A9AD"/>
<path d="M125.784 153.944C125.784 155.711 125.335 157.279 124.439 158.649C123.543 160.02 122.25 161.085 120.562 161.844C118.873 162.604 116.892 162.984 114.619 162.984C112.723 162.984 111.132 162.851 109.846 162.585C108.56 162.319 107.222 161.855 105.832 161.192V154.334C107.3 155.087 108.826 155.675 110.411 156.097C111.996 156.519 113.45 156.73 114.775 156.73C115.918 156.73 116.756 156.533 117.288 156.136C117.821 155.74 118.088 155.23 118.088 154.607C118.088 154.217 117.98 153.876 117.766 153.584C117.552 153.292 117.208 152.996 116.734 152.698C116.259 152.399 114.996 151.789 112.944 150.866C111.086 150.022 109.693 149.204 108.765 148.411C107.836 147.619 107.148 146.71 106.699 145.683C106.251 144.657 106.027 143.442 106.027 142.04C106.027 139.416 106.981 137.37 108.891 135.903C110.801 134.435 113.424 133.701 116.762 133.701C119.711 133.701 122.718 134.383 125.783 135.747L123.425 141.689C120.763 140.469 118.464 139.858 116.529 139.858C115.528 139.858 114.801 140.033 114.346 140.384C113.891 140.735 113.665 141.17 113.665 141.689C113.665 142.248 113.953 142.748 114.531 143.19C115.11 143.631 116.678 144.437 119.237 145.606C121.692 146.71 123.397 147.895 124.351 149.161C125.306 150.427 125.784 152.022 125.784 153.944Z" fill="#A4A9AD"/>
<path d="M130.504 29.9962H160.5L130.504 0V29.9962Z" fill="#D1D3D3"/>
</svg>
