<svg width="30" height="31" viewBox="0 0 30 31" fill="none" xmlns="http://www.w3.org/2000/svg">
<path fill-rule="evenodd" clip-rule="evenodd" d="M5 0.524902C2.23858 0.524902 0 2.76348 0 5.5249V25.5249C0 28.2863 2.23858 30.5249 5 30.5249H25C27.7614 30.5249 30 28.2863 30 25.5249V5.5249C30 2.76348 27.7614 0.524902 25 0.524902H5ZM16.0312 23.0249V17.6812H17.8125L18.1875 15.5249H16.125V14.1187C16.125 13.5562 16.4062 12.9937 17.3438 12.9937H18.2812V11.1187C18.2812 11.1187 17.4375 10.9312 16.5938 10.9312C14.9062 10.9312 13.7812 11.9624 13.7812 13.8374V15.5249H11.9062V17.6812H13.7812V23.0249H12.5C9.73858 23.0249 7.5 20.7863 7.5 18.0249V13.0249C7.5 10.2635 9.73858 8.0249 12.5 8.0249H17.5C20.2614 8.0249 22.5 10.2635 22.5 13.0249V18.0249C22.5 20.7863 20.2614 23.0249 17.5 23.0249H16.0312Z" fill="#F4F4F4"/>
</svg>
