<svg width="90" height="27" viewBox="0 0 90 27" fill="none" xmlns="http://www.w3.org/2000/svg">
<path d="M90.0001 0H68.8223L63.5283 5.29278V8.82353L84.7077 21.1761H63.5283V26.4689H84.7044L90.0001 21.1778V17.6471L68.8257 5.29278H90.0001V0Z" fill="white"/>
<path d="M26.4718 10.5673V5.28449L21.1761 0.00170898H5.29736H0V5.29449V10.5873V15.8851V21.1795V26.469V26.4706H5.29736V26.469H21.1744L26.4718 21.1412V15.8851L21.1744 10.5673H26.4718ZM21.1744 21.1778H5.29736V15.8834H21.1744V21.1778ZM21.1744 10.5873H5.29736V5.29449H21.1727V10.5673V10.5873H21.1744Z" fill="white"/>
<path d="M37.0572 0L31.7632 5.29278V26.4689H37.0555V15.8834H52.9376V26.4689H58.2349V5.29278L52.9393 0H37.0572ZM52.9376 10.5872H37.0555V5.29445H52.9376V10.5872Z" fill="white"/>
</svg>
