<svg width="24" height="24" viewBox="0 0 24 24" fill="none" xmlns="http://www.w3.org/2000/svg">
<path d="M4 20C3.45 20 2.979 19.804 2.587 19.412C2.195 19.02 1.99934 18.5493 2 18V6C2 5.45 2.196 4.979 2.588 4.587C2.98 4.195 3.45067 3.99934 4 4H20C20.55 4 21.021 4.196 21.413 4.588C21.805 4.98 22.0007 5.45067 22 6V13.8C21.55 13.5333 21.0707 13.3333 20.562 13.2C20.0533 13.0667 19.5327 13 19 13C17.3333 13 15.9167 13.5833 14.75 14.75C13.5833 15.9167 13 17.3333 13 19V20H4ZM12 13L20 8V6L12 11L4 6V8L12 13Z" fill="#1C1B1F"/>
<path d="M20.4 21.6L19 23L15 19L19 15L20.425 16.4L18.825 18H23V20H18.825L20.4 21.6Z" fill="#1C1B1F"/>
</svg>
