<svg width="30" height="31" viewBox="0 0 30 31" fill="none" xmlns="http://www.w3.org/2000/svg">
<path d="M15 18.1499C13.5938 18.1499 12.375 17.0249 12.375 15.5249C12.375 14.1186 13.5 12.8999 15 12.8999C16.4062 12.8999 17.625 14.0249 17.625 15.5249C17.625 16.9311 16.4062 18.1499 15 18.1499Z" fill="#FFFBFE"/>
<path fill-rule="evenodd" clip-rule="evenodd" d="M18.1875 9.1499H11.8125C11.0625 9.24365 10.6875 9.3374 10.4062 9.43115C10.0313 9.5249 9.75 9.7124 9.46875 9.99365C9.2462 10.2162 9.14105 10.4388 9.01396 10.7077C8.98046 10.7786 8.94535 10.853 8.90625 10.9312C8.89175 10.9747 8.875 11.0204 8.85705 11.0695C8.75897 11.3374 8.625 11.7034 8.625 12.3374V18.7124C8.71875 19.4624 8.8125 19.8374 8.90625 20.1187C9 20.4937 9.1875 20.7749 9.46875 21.0562C9.6913 21.2787 9.91385 21.3839 10.1829 21.5109C10.2538 21.5445 10.328 21.5795 10.4062 21.6186C10.4498 21.6332 10.4955 21.6499 10.5445 21.6678C10.8125 21.7659 11.1785 21.8999 11.8125 21.8999H18.1875C18.9375 21.8061 19.3125 21.7124 19.5938 21.6186C19.9688 21.5249 20.25 21.3374 20.5312 21.0562C20.7538 20.8336 20.8589 20.6111 20.986 20.3421C21.0196 20.2711 21.0546 20.1969 21.0938 20.1187C21.1083 20.0751 21.125 20.0294 21.1429 19.9804C21.241 19.7124 21.375 19.3464 21.375 18.7124V12.3374C21.2812 11.5874 21.1875 11.2124 21.0938 10.9312C21 10.5562 20.8125 10.2749 20.5312 9.99365C20.3087 9.7711 20.0861 9.66595 19.8172 9.53886C19.7463 9.50538 19.6719 9.47022 19.5938 9.43115C19.5502 9.41665 19.5045 9.3999 19.4555 9.38195C19.1875 9.28387 18.8215 9.1499 18.1875 9.1499ZM15 11.4936C12.75 11.4936 10.9688 13.2749 10.9688 15.5249C10.9688 17.7749 12.75 19.5561 15 19.5561C17.25 19.5561 19.0312 17.7749 19.0312 15.5249C19.0312 13.2749 17.25 11.4936 15 11.4936ZM20.0625 11.3999C20.0625 11.9177 19.6428 12.3374 19.125 12.3374C18.6072 12.3374 18.1875 11.9177 18.1875 11.3999C18.1875 10.8821 18.6072 10.4624 19.125 10.4624C19.6428 10.4624 20.0625 10.8821 20.0625 11.3999Z" fill="#FFFBFE"/>
<path fill-rule="evenodd" clip-rule="evenodd" d="M0 5.2124C0 2.62357 2.09867 0.524902 4.6875 0.524902H25.3125C27.9013 0.524902 30 2.62357 30 5.2124V25.8374C30 28.4262 27.9013 30.5249 25.3125 30.5249H4.6875C2.09867 30.5249 0 28.4262 0 25.8374V5.2124ZM11.8125 7.74365H18.1875C19.0312 7.8374 19.5938 7.93115 20.0625 8.11865C20.625 8.3999 21 8.5874 21.4688 9.05615C21.9375 9.5249 22.2188 9.99365 22.4063 10.4624C22.5938 10.9312 22.7812 11.4937 22.7812 12.3374V18.7124C22.6875 19.5562 22.5938 20.1187 22.4063 20.5874C22.125 21.1499 21.9375 21.5249 21.4688 21.9937C21 22.4624 20.5312 22.7436 20.0625 22.9312C19.5938 23.1187 19.0312 23.3061 18.1875 23.3061H11.8125C10.9688 23.2124 10.4062 23.1187 9.9375 22.9312C9.375 22.6499 9 22.4624 8.53125 21.9937C8.0625 21.5249 7.78125 21.0562 7.59375 20.5874C7.40625 20.1187 7.21875 19.5562 7.21875 18.7124V12.3374C7.3125 11.4937 7.40625 10.9312 7.59375 10.4624C7.875 9.8999 8.0625 9.5249 8.53125 9.05615C9 8.5874 9.46875 8.30615 9.9375 8.11865C10.4062 7.93115 10.9688 7.74365 11.8125 7.74365Z" fill="#FFFBFE"/>
</svg>
