<svg width="956" height="197" viewBox="0 0 956 197" fill="none" xmlns="http://www.w3.org/2000/svg">
<path d="M128.554 158.129V194H30.7723V158.129H128.554ZM47.3793 0.562277V194H0.746969V0.562277H47.3793ZM220.756 157.863V98.6097C220.756 94.5355 220.18 91.0369 219.029 88.1141C217.877 85.1913 216.062 82.9327 213.582 81.3385C211.102 79.6556 207.78 78.8142 203.617 78.8142C200.252 78.8142 197.373 79.3899 194.982 80.5413C192.59 81.6928 190.775 83.4199 189.535 85.7227C188.295 88.0255 187.675 90.9484 187.675 94.4912H142.902C142.902 87.8484 144.364 81.6928 147.287 76.0242C150.298 70.2672 154.549 65.2629 160.041 61.0116C165.621 56.7602 172.264 53.4831 179.969 51.1803C187.763 48.7889 196.443 47.5932 206.009 47.5932C217.434 47.5932 227.62 49.4974 236.566 53.3059C245.6 57.1145 252.73 62.8273 257.955 70.4443C263.181 77.9728 265.794 87.4498 265.794 98.8754V157.73C265.794 167.119 266.325 174.249 267.388 179.12C268.451 183.903 269.957 188.11 271.905 191.741V194H227C224.874 189.571 223.28 184.169 222.217 177.792C221.243 171.326 220.756 164.683 220.756 157.863ZM226.203 106.182L226.469 130.096H206.673C202.51 130.096 198.967 130.672 196.045 131.824C193.21 132.975 190.908 134.569 189.136 136.606C187.453 138.555 186.213 140.769 185.416 143.249C184.708 145.729 184.353 148.342 184.353 151.088C184.353 153.745 184.973 156.136 186.213 158.262C187.542 160.299 189.313 161.893 191.528 163.045C193.742 164.196 196.222 164.772 198.967 164.772C203.927 164.772 208.135 163.842 211.589 161.982C215.132 160.033 217.833 157.686 219.693 154.94C221.553 152.195 222.483 149.626 222.483 147.235L232.314 165.569C230.543 169.112 228.506 172.699 226.203 176.33C223.989 179.962 221.199 183.327 217.833 186.427C214.556 189.439 210.526 191.919 205.743 193.867C200.96 195.727 195.159 196.657 188.339 196.657C179.482 196.657 171.334 194.841 163.894 191.21C156.542 187.579 150.652 182.53 146.224 176.064C141.795 169.51 139.581 161.982 139.581 153.479C139.581 146.039 140.91 139.396 143.567 133.551C146.312 127.705 150.431 122.745 155.922 118.671C161.414 114.597 168.411 111.497 176.913 109.371C185.416 107.245 195.425 106.182 206.939 106.182H226.203ZM366.366 50.2503V81.3385H279.744V50.2503H366.366ZM297.945 14.5121H342.717V147.102C342.717 150.911 343.16 153.878 344.046 156.003C344.931 158.04 346.437 159.502 348.563 160.388C350.777 161.185 353.7 161.583 357.331 161.583C359.9 161.583 362.026 161.539 363.708 161.45C365.391 161.273 366.986 161.052 368.491 160.786V192.804C364.683 194.044 360.697 194.974 356.534 195.594C352.371 196.303 347.943 196.657 343.249 196.657C333.683 196.657 325.49 195.151 318.67 192.14C311.939 189.129 306.802 184.39 303.259 177.924C299.716 171.459 297.945 163.045 297.945 152.682V14.5121ZM453.785 196.657C442.093 196.657 431.642 194.841 422.431 191.21C413.219 187.49 405.425 182.397 399.048 175.932C392.76 169.466 387.932 162.026 384.567 153.612C381.29 145.198 379.651 136.296 379.651 126.908V121.859C379.651 111.32 381.113 101.577 384.035 92.6312C386.958 83.597 391.298 75.7142 397.055 68.9829C402.812 62.2516 410.031 57.0259 418.711 53.3059C427.391 49.4974 437.488 47.5932 449.002 47.5932C459.187 47.5932 468.31 49.2317 476.37 52.5088C484.43 55.7859 491.25 60.4801 496.83 66.5915C502.498 72.7029 506.794 80.0985 509.717 88.7784C512.728 97.4583 514.234 107.201 514.234 118.007V136.208H396.789V108.175H470.524V104.721C470.613 99.9382 469.771 95.864 468 92.4983C466.317 89.1327 463.837 86.5641 460.56 84.7927C457.283 83.0213 453.297 82.1356 448.603 82.1356C443.732 82.1356 439.702 83.1984 436.513 85.3241C433.413 87.4498 430.978 90.3726 429.206 94.0926C427.523 97.724 426.328 101.931 425.619 106.714C424.911 111.497 424.556 116.545 424.556 121.859V126.908C424.556 132.222 425.265 137.049 426.682 141.389C428.188 145.729 430.313 149.449 433.059 152.549C435.893 155.56 439.259 157.908 443.156 159.59C447.142 161.273 451.659 162.115 456.707 162.115C462.819 162.115 468.841 160.963 474.776 158.66C480.71 156.358 485.803 152.549 490.054 147.235L510.381 171.415C507.458 175.577 503.295 179.607 497.893 183.504C492.578 187.402 486.201 190.59 478.761 193.07C471.321 195.461 462.996 196.657 453.785 196.657ZM607.764 153.612C607.764 151.132 606.923 149.006 605.24 147.235C603.646 145.375 600.811 143.692 596.737 142.186C592.663 140.592 586.95 138.998 579.599 137.404C572.602 135.898 566.003 133.905 559.803 131.425C553.692 128.945 548.333 125.934 543.728 122.391C539.122 118.848 535.491 114.641 532.834 109.77C530.265 104.898 528.981 99.3183 528.981 93.0298C528.981 86.9184 530.265 81.1613 532.834 75.7585C535.491 70.2672 539.343 65.4401 544.392 61.2773C549.529 57.0259 555.773 53.7045 563.125 51.3131C570.476 48.8331 578.846 47.5932 588.234 47.5932C601.166 47.5932 612.325 49.586 621.714 53.5717C631.102 57.4687 638.321 62.9601 643.369 70.0457C648.506 77.0428 651.075 85.147 651.075 94.3583H606.303C606.303 90.7269 605.683 87.627 604.443 85.0584C603.291 82.4899 601.387 80.5413 598.73 79.2128C596.073 77.7957 592.53 77.0871 588.101 77.0871C585.002 77.0871 582.167 77.6628 579.599 78.8142C577.119 79.9656 575.126 81.5599 573.62 83.597C572.115 85.6341 571.362 88.0255 571.362 90.7712C571.362 92.7198 571.805 94.4912 572.69 96.0854C573.665 97.5911 575.126 99.0083 577.074 100.337C579.023 101.577 581.503 102.728 584.514 103.791C587.526 104.765 591.157 105.651 595.409 106.448C605.063 108.22 614.097 110.744 622.511 114.021C630.925 117.298 637.745 121.948 642.971 127.971C648.285 133.994 650.942 142.098 650.942 152.283C650.942 158.66 649.481 164.55 646.558 169.953C643.635 175.267 639.428 179.962 633.937 184.036C628.445 188.021 621.847 191.121 614.141 193.336C606.436 195.55 597.756 196.657 588.101 196.657C574.373 196.657 562.77 194.221 553.293 189.35C543.816 184.39 536.642 178.19 531.771 170.75C526.988 163.222 524.597 155.605 524.597 147.899H566.313C566.49 152.328 567.553 155.959 569.502 158.793C571.539 161.628 574.24 163.709 577.606 165.037C580.972 166.366 584.869 167.03 589.297 167.03C593.371 167.03 596.737 166.455 599.394 165.303C602.14 164.152 604.221 162.602 605.638 160.653C607.056 158.616 607.764 156.269 607.764 153.612ZM747.661 50.2503V81.3385H661.039V50.2503H747.661ZM679.24 14.5121H724.013V147.102C724.013 150.911 724.456 153.878 725.341 156.003C726.227 158.04 727.733 159.502 729.858 160.388C732.073 161.185 734.995 161.583 738.627 161.583C741.195 161.583 743.321 161.539 745.004 161.45C746.687 161.273 748.281 161.052 749.787 160.786V192.804C745.978 194.044 741.993 194.974 737.83 195.594C733.667 196.303 729.238 196.657 724.544 196.657C714.979 196.657 706.786 195.151 699.966 192.14C693.235 189.129 688.097 184.39 684.555 177.924C681.012 171.459 679.24 163.045 679.24 152.682V14.5121ZM912.535 128.369H864.441V92.3655H912.535C919.089 92.3655 924.403 91.2584 928.477 89.0441C932.552 86.8298 935.519 83.7742 937.379 79.8771C939.327 75.8914 940.302 71.4186 940.302 66.4586C940.302 61.1444 939.327 56.2288 937.379 51.7117C935.519 47.1946 932.552 43.5632 928.477 40.8175C924.403 37.9833 919.089 36.5661 912.535 36.5661H881.978V194H835.346V0.562277H912.535C928.035 0.562277 941.364 3.39653 952.524 9.06503C963.773 14.7335 972.408 22.5277 978.431 32.4476C984.454 42.2789 987.465 53.5274 987.465 66.1929C987.465 78.6814 984.454 89.5755 978.431 98.8754C972.408 108.175 963.773 115.438 952.524 120.664C941.364 125.801 928.035 128.369 912.535 128.369Z" fill="#D9D9D9" fill-opacity="0.1"/>
</svg>
