<svg width="34" height="27" viewBox="0 0 34 27" fill="none" xmlns="http://www.w3.org/2000/svg">
<path d="M20.9159 26.1534C20.7439 26.1544 20.5733 26.1214 20.414 26.0563C20.2547 25.9913 20.1098 25.8954 19.9877 25.7742C19.8651 25.6527 19.7679 25.5081 19.7015 25.3488C19.6351 25.1894 19.601 25.0186 19.601 24.846C19.601 24.6734 19.6351 24.5025 19.7015 24.3432C19.7679 24.1838 19.8651 24.0393 19.9877 23.9177L30.8391 13.0794L19.9877 2.241C19.7415 1.99482 19.6032 1.66091 19.6032 1.31275C19.6032 0.964587 19.7415 0.630684 19.9877 0.384496C20.2339 0.138307 20.5678 0 20.9159 0C21.2641 0 21.598 0.138307 21.8442 0.384496L33.6108 12.1511C33.7333 12.2726 33.8306 12.4172 33.897 12.5766C33.9633 12.7359 33.9975 12.9068 33.9975 13.0794C33.9975 13.2519 33.9633 13.4228 33.897 13.5822C33.8306 13.7415 33.7333 13.8861 33.6108 14.0076L21.8442 25.7742C21.722 25.8954 21.5771 25.9913 21.4179 26.0563C21.2586 26.1214 21.088 26.1544 20.9159 26.1534Z" fill="#F4F4F4"/>
<path d="M32.685 14.3868H1.3074C0.960656 14.3868 0.628114 14.249 0.382929 14.0038C0.137744 13.7587 0 13.4261 0 13.0794C0 12.7326 0.137744 12.4001 0.382929 12.1549C0.628114 11.9097 0.960656 11.772 1.3074 11.772H32.685C33.0318 11.772 33.3643 11.9097 33.6095 12.1549C33.8547 12.4001 33.9924 12.7326 33.9924 13.0794C33.9924 13.4261 33.8547 13.7587 33.6095 14.0038C33.3643 14.249 33.0318 14.3868 32.685 14.3868Z" fill="#F4F4F4"/>
</svg>
