<svg width="30" height="31" viewBox="0 0 30 31" fill="none" xmlns="http://www.w3.org/2000/svg">
<path fill-rule="evenodd" clip-rule="evenodd" d="M0 5.2124C0 2.62357 2.09867 0.524902 4.6875 0.524902H25.3125C27.9013 0.524902 30 2.62357 30 5.2124V25.8374C30 28.4262 27.9013 30.5249 25.3125 30.5249H4.6875C2.09867 30.5249 0 28.4262 0 25.8374V5.2124ZM7.6875 12.9937V23.0249H10.875V12.9937H7.6875ZM7.5 9.80615C7.5 10.8374 8.25 11.5874 9.28125 11.5874C10.3125 11.5874 11.0625 10.8374 11.0625 9.80615C11.0625 8.77491 10.3125 8.0249 9.28125 8.0249C8.34375 8.0249 7.5 8.77491 7.5 9.80615ZM19.3125 23.0249H22.3125V16.8374C22.3125 13.7437 20.4375 12.7124 18.6562 12.7124C17.0625 12.7124 15.9375 13.7437 15.6562 14.3999V12.9937H12.6562V23.0249H15.8437V17.6812C15.8437 16.2749 16.7812 15.5249 17.7187 15.5249C18.6562 15.5249 19.3125 15.9937 19.3125 17.5874V23.0249Z" fill="#FFFBFE"/>
</svg>
