<svg width="80" height="25" viewBox="0 0 80 25" fill="none" xmlns="http://www.w3.org/2000/svg">
<path d="M80.0001 0.631592H61.1751L56.4692 5.33422V8.47376L75.2957 19.4525H56.4692V24.1566H75.2927L80.0001 19.4525V16.3144L61.1781 5.3357H80.0001V0.631592Z" fill="#FFFBFE"/>
<path d="M23.5306 10.022V5.32682L18.8233 0.631592H4.7086H-0.000244141V5.3357V10.0398V14.7484V19.454V24.1551V24.1566H4.7086V24.1551H18.8218L23.5306 19.4199V14.7484L18.8218 10.022H23.5306ZM18.8218 19.454H4.7086V14.7484H18.8218V19.454ZM18.8218 10.0398H4.7086V5.3357H18.8203V10.022V10.0398H18.8218Z" fill="#FFFBFE"/>
<path d="M32.9373 0.631592L28.2314 5.3357V24.1566H32.9358V14.7484H47.0535V24.1566H51.7623V5.3357L47.0549 0.631592H32.9373ZM47.0535 10.0398H32.9358V5.3357H47.0535V10.0398Z" fill="#FFFBFE"/>
</svg>
