<svg width="90" height="27" viewBox="0 0 90 27" fill="none" xmlns="http://www.w3.org/2000/svg">
<path d="M89.9999 0.264648H68.8221L63.5281 5.55743V9.08818L84.7075 21.4408H63.5281V26.7336H84.7042L89.9999 21.4425V17.9117L68.8254 5.55743H89.9999V0.264648Z" fill="white"/>
<path d="M26.4718 10.8319V5.54914L21.1761 0.266357H5.29736H0V5.55914V10.8519V16.1497V21.4442V26.7336V26.7353H5.29736V26.7336H21.1744L26.4718 21.4058V16.1497L21.1744 10.8319H26.4718ZM21.1744 21.4425H5.29736V16.148H21.1744V21.4425ZM21.1744 10.8519H5.29736V5.55914H21.1727V10.8319V10.8519H21.1744Z" fill="white"/>
<path d="M37.0574 0.264648L31.7634 5.55743V26.7336H37.0558V16.148H52.9378V26.7336H58.2352V5.55743L52.9395 0.264648H37.0574ZM52.9378 10.8519H37.0558V5.5591H52.9378V10.8519Z" fill="white"/>
</svg>
