<svg width="808" height="206" viewBox="0 0 808 206" fill="none" xmlns="http://www.w3.org/2000/svg">
<path d="M169.425 102.428V110.267C169.425 125.058 167.344 138.344 163.181 150.123C159.107 161.815 153.305 171.823 145.777 180.149C138.248 188.386 129.347 194.719 119.073 199.147C108.799 203.487 97.4616 205.657 85.0618 205.657C72.5733 205.657 61.1477 203.487 50.785 199.147C40.5108 194.719 31.5652 188.386 23.9482 180.149C16.4197 171.823 10.5741 161.815 6.41125 150.123C2.33701 138.344 0.299891 125.058 0.299891 110.267V102.428C0.299891 87.6371 2.33701 74.3515 6.41125 62.5717C10.5741 50.7918 16.3754 40.7833 23.8153 32.5463C31.3438 24.2207 40.2451 17.8879 50.5193 13.5479C60.882 9.11942 72.3076 6.90517 84.796 6.90517C97.1959 6.90517 108.533 9.11942 118.807 13.5479C129.17 17.8879 138.115 24.2207 145.644 32.5463C153.172 40.7833 159.018 50.7918 163.181 62.5717C167.344 74.3515 169.425 87.6371 169.425 102.428ZM122.128 110.267V102.163C122.128 92.597 121.287 84.1828 119.604 76.9201C118.01 69.5687 115.619 63.4131 112.43 58.4531C109.241 53.4932 105.3 49.7732 100.606 47.2933C96.0002 44.7247 90.7303 43.4404 84.796 43.4404C78.5961 43.4404 73.1933 44.7247 68.5877 47.2933C63.982 49.7732 60.1292 53.4932 57.0292 58.4531C53.9293 63.4131 51.5821 69.5687 49.9879 76.9201C48.4822 84.1828 47.7293 92.597 47.7293 102.163V110.267C47.7293 119.744 48.4822 128.158 49.9879 135.509C51.5821 142.772 53.9293 148.928 57.0292 153.976C60.2178 159.025 64.1149 162.833 68.7205 165.402C73.4147 167.97 78.8618 169.255 85.0618 169.255C90.996 169.255 96.2659 167.97 100.872 165.402C105.477 162.833 109.33 159.025 112.43 153.976C115.619 148.928 118.01 142.772 119.604 135.509C121.287 128.158 122.128 119.744 122.128 110.267ZM275.444 168.059V59.2503H320.349V203H278.367L275.444 168.059ZM279.695 138.831L291.386 138.565C291.386 148.219 290.235 157.165 287.932 165.402C285.629 173.55 282.219 180.636 277.702 186.659C273.274 192.682 267.782 197.376 261.228 200.741C254.763 204.019 247.278 205.657 238.776 205.657C231.69 205.657 225.18 204.683 219.246 202.734C213.4 200.697 208.352 197.553 204.1 193.302C199.849 188.962 196.528 183.426 194.136 176.695C191.833 169.875 190.682 161.726 190.682 152.249V59.2503H235.454V152.515C235.454 155.703 235.853 158.449 236.65 160.752C237.447 163.055 238.599 165.003 240.104 166.598C241.61 168.103 243.47 169.255 245.684 170.052C247.987 170.76 250.6 171.115 253.523 171.115C260.254 171.115 265.524 169.698 269.332 166.863C273.141 164.029 275.798 160.176 277.304 155.305C278.898 150.433 279.695 144.942 279.695 138.831ZM390.231 94.8556V203H345.459V59.2503H387.308L390.231 94.8556ZM432.745 58.1874L431.948 99.7712C430.176 99.5941 427.785 99.3726 424.773 99.1069C421.762 98.8412 419.238 98.7084 417.201 98.7084C411.975 98.7084 407.458 99.3284 403.649 100.568C399.929 101.72 396.83 103.491 394.35 105.883C391.958 108.185 390.187 111.108 389.035 114.651C387.972 118.194 387.485 122.312 387.574 127.007L379.47 121.692C379.47 112.038 380.4 103.27 382.26 95.387C384.208 87.4156 386.954 80.5514 390.497 74.7944C394.04 68.9487 398.335 64.4759 403.384 61.376C408.432 58.1874 414.101 56.5932 420.389 56.5932C422.603 56.5932 424.773 56.726 426.899 56.9917C429.113 57.2574 431.062 57.656 432.745 58.1874ZM617.68 151.585C617.68 148.573 617.237 145.872 616.351 143.481C615.466 141.001 613.827 138.698 611.436 136.572C609.044 134.447 605.59 132.321 601.073 130.195C596.644 127.981 590.799 125.678 583.536 123.287C575.033 120.452 566.84 117.264 558.958 113.721C551.075 110.09 544.034 105.883 537.834 101.1C531.634 96.2284 526.718 90.5599 523.087 84.0943C519.455 77.54 517.64 69.923 517.64 61.2431C517.64 52.9175 519.5 45.4333 523.219 38.7905C526.939 32.0592 532.121 26.3464 538.764 21.6521C545.495 16.8693 553.378 13.2379 562.412 10.758C571.446 8.18944 581.322 6.90517 592.039 6.90517C606.21 6.90517 618.698 9.38514 629.504 14.3451C640.398 19.2164 648.901 26.1692 655.012 35.2034C661.212 44.149 664.312 54.7332 664.312 66.9559H617.946C617.946 62.0845 616.927 57.7889 614.89 54.0689C612.941 50.3489 609.974 47.4261 605.989 45.3004C602.003 43.1747 596.999 42.1119 590.976 42.1119C585.13 42.1119 580.215 42.9976 576.229 44.769C572.243 46.5404 569.232 48.9318 567.195 51.9432C565.158 54.866 564.139 58.0988 564.139 61.6417C564.139 64.5645 564.936 67.2216 566.53 69.613C568.213 71.9158 570.56 74.0858 573.572 76.1229C576.672 78.16 580.392 80.1086 584.732 81.9686C589.16 83.8285 594.12 85.6442 599.611 87.4156C609.886 90.6928 619.008 94.3684 626.98 98.4427C635.04 102.428 641.815 106.99 647.307 112.127C652.887 117.175 657.094 122.932 659.928 129.398C662.851 135.864 664.312 143.171 664.312 151.319C664.312 159.999 662.629 167.705 659.264 174.436C655.898 181.167 651.071 186.88 644.782 191.574C638.494 196.18 630.965 199.679 622.197 202.07C613.428 204.461 603.641 205.657 592.836 205.657C582.916 205.657 573.129 204.417 563.475 201.937C553.909 199.369 545.229 195.472 537.435 190.246C529.641 184.932 523.397 178.156 518.702 169.919C514.097 161.593 511.794 151.718 511.794 140.292H558.559C558.559 145.961 559.312 150.743 560.818 154.641C562.323 158.538 564.538 161.682 567.46 164.073C570.383 166.376 573.97 168.059 578.222 169.122C582.473 170.096 587.344 170.583 592.836 170.583C598.77 170.583 603.553 169.742 607.184 168.059C610.816 166.288 613.473 163.985 615.156 161.15C616.838 158.228 617.68 155.039 617.68 151.585ZM755.85 205.657C744.158 205.657 733.707 203.841 724.496 200.21C715.284 196.49 707.49 191.397 701.113 184.932C694.825 178.466 689.997 171.026 686.632 162.612C683.355 154.198 681.716 145.296 681.716 135.908V130.859C681.716 120.32 683.178 110.577 686.1 101.631C689.023 92.597 693.363 84.7142 699.12 77.9829C704.877 71.2516 712.096 66.0259 720.776 62.3059C729.456 58.4974 739.553 56.5932 751.067 56.5932C761.252 56.5932 770.375 58.2317 778.435 61.5088C786.495 64.7859 793.315 69.4801 798.895 75.5915C804.563 81.7029 808.859 89.0985 811.782 97.7784C814.793 106.458 816.299 116.201 816.299 127.007V145.208H698.854V117.175H772.589V113.721C772.678 108.938 771.836 104.864 770.065 101.498C768.382 98.1327 765.902 95.5641 762.625 93.7927C759.348 92.0213 755.362 91.1356 750.668 91.1356C745.797 91.1356 741.767 92.1984 738.578 94.3241C735.478 96.4498 733.043 99.3726 731.271 103.093C729.588 106.724 728.393 110.931 727.684 115.714C726.976 120.497 726.621 125.545 726.621 130.859V135.908C726.621 141.222 727.33 146.049 728.747 150.389C730.253 154.729 732.378 158.449 735.124 161.549C737.958 164.56 741.324 166.908 745.221 168.59C749.207 170.273 753.724 171.115 758.772 171.115C764.884 171.115 770.907 169.963 776.841 167.66C782.775 165.358 787.868 161.549 792.119 156.235L812.446 180.415C809.523 184.577 805.36 188.607 799.958 192.504C794.643 196.402 788.266 199.59 780.826 202.07C773.386 204.461 765.061 205.657 755.85 205.657ZM879.671 94.8556V203H834.899V59.2503H876.748L879.671 94.8556ZM922.185 58.1874L921.388 99.7712C919.616 99.5941 917.225 99.3726 914.213 99.1069C911.202 98.8412 908.678 98.7084 906.641 98.7084C901.415 98.7084 896.898 99.3284 893.089 100.568C889.369 101.72 886.269 103.491 883.789 105.883C881.398 108.185 879.627 111.108 878.475 114.651C877.412 118.194 876.925 122.312 877.014 127.007L868.91 121.692C868.91 112.038 869.84 103.27 871.7 95.387C873.648 87.4156 876.394 80.5514 879.937 74.7944C883.479 68.9487 887.775 64.4759 892.824 61.376C897.872 58.1874 903.541 56.5932 909.829 56.5932C912.043 56.5932 914.213 56.726 916.339 56.9917C918.553 57.2574 920.502 57.656 922.185 58.1874ZM991.801 172.31L1020.1 59.2503H1067.26L1020.23 203H992.333L991.801 172.31ZM975.061 59.2503L1002.96 172.31L1002.7 203H974.663L927.765 59.2503H975.061ZM1127.85 59.2503V203H1082.94V59.2503H1127.85ZM1080.28 22.1836C1080.28 15.8065 1082.59 10.5808 1087.19 6.5066C1091.8 2.43236 1097.78 0.395242 1105.13 0.395242C1112.48 0.395242 1118.46 2.43236 1123.06 6.5066C1127.67 10.5808 1129.97 15.8065 1129.97 22.1836C1129.97 28.5606 1127.67 33.7863 1123.06 37.8605C1118.46 41.9348 1112.48 43.9719 1105.13 43.9719C1097.78 43.9719 1091.8 41.9348 1087.19 37.8605C1082.59 33.7863 1080.28 28.5606 1080.28 22.1836ZM1216.19 171.115C1220.36 171.115 1223.9 170.362 1226.82 168.856C1229.83 167.262 1232.09 165.048 1233.6 162.213C1235.19 159.291 1235.95 155.792 1235.86 151.718H1277.97C1278.06 162.523 1275.4 172 1270 180.149C1264.69 188.209 1257.42 194.497 1248.21 199.014C1239.09 203.443 1228.77 205.657 1217.26 205.657C1206.01 205.657 1196.18 203.841 1187.76 200.21C1179.35 196.49 1172.31 191.353 1166.64 184.799C1161.06 178.156 1156.85 170.406 1154.02 161.549C1151.27 152.692 1149.9 143.082 1149.9 132.719V129.664C1149.9 119.301 1151.27 109.691 1154.02 100.834C1156.85 91.8885 1161.06 84.1385 1166.64 77.5843C1172.31 70.9416 1179.3 65.8045 1187.63 62.1731C1196.04 58.4531 1205.83 56.5932 1216.99 56.5932C1228.95 56.5932 1239.49 58.8517 1248.61 63.3688C1257.82 67.8859 1265.04 74.4401 1270.27 83.0314C1275.49 91.6227 1278.06 102.03 1277.97 114.252H1235.86C1235.95 109.913 1235.28 106.015 1233.86 102.561C1232.45 99.1069 1230.23 96.3613 1227.22 94.3241C1224.3 92.1984 1220.53 91.1356 1215.93 91.1356C1211.32 91.1356 1207.6 92.1542 1204.77 94.1913C1201.93 96.2284 1199.76 99.0627 1198.26 102.694C1196.84 106.237 1195.87 110.311 1195.34 114.917C1194.89 119.522 1194.67 124.438 1194.67 129.664V132.719C1194.67 138.034 1194.89 143.038 1195.34 147.732C1195.87 152.338 1196.89 156.412 1198.39 159.955C1199.9 163.409 1202.07 166.155 1204.9 168.192C1207.74 170.14 1211.5 171.115 1216.19 171.115ZM1366.72 205.657C1355.03 205.657 1344.58 203.841 1335.37 200.21C1326.15 196.49 1318.36 191.397 1311.98 184.932C1305.69 178.466 1300.87 171.026 1297.5 162.612C1294.22 154.198 1292.59 145.296 1292.59 135.908V130.859C1292.59 120.32 1294.05 110.577 1296.97 101.631C1299.89 92.597 1304.23 84.7142 1309.99 77.9829C1315.75 71.2516 1322.97 66.0259 1331.65 62.3059C1340.33 58.4974 1350.42 56.5932 1361.94 56.5932C1372.12 56.5932 1381.25 58.2317 1389.3 61.5088C1397.36 64.7859 1404.18 69.4801 1409.76 75.5915C1415.43 81.7029 1419.73 89.0985 1422.65 97.7784C1425.66 106.458 1427.17 116.201 1427.17 127.007V145.208H1309.72V117.175H1383.46V113.721C1383.55 108.938 1382.71 104.864 1380.94 101.498C1379.25 98.1327 1376.77 95.5641 1373.5 93.7927C1370.22 92.0213 1366.23 91.1356 1361.54 91.1356C1356.67 91.1356 1352.64 92.1984 1349.45 94.3241C1346.35 96.4498 1343.91 99.3726 1342.14 103.093C1340.46 106.724 1339.26 110.931 1338.55 115.714C1337.85 120.497 1337.49 125.545 1337.49 130.859V135.908C1337.49 141.222 1338.2 146.049 1339.62 150.389C1341.12 154.729 1343.25 158.449 1345.99 161.549C1348.83 164.56 1352.19 166.908 1356.09 168.59C1360.08 170.273 1364.59 171.115 1369.64 171.115C1375.75 171.115 1381.78 169.963 1387.71 167.66C1393.64 165.358 1398.74 161.549 1402.99 156.235L1423.32 180.415C1420.39 184.577 1416.23 188.607 1410.83 192.504C1405.51 196.402 1399.14 199.59 1391.7 202.07C1384.26 204.461 1375.93 205.657 1366.72 205.657ZM1520.7 162.612C1520.7 160.132 1519.86 158.006 1518.17 156.235C1516.58 154.375 1513.75 152.692 1509.67 151.186C1505.6 149.592 1499.89 147.998 1492.53 146.404C1485.54 144.898 1478.94 142.905 1472.74 140.425C1466.63 137.945 1461.27 134.934 1456.66 131.391C1452.06 127.848 1448.43 123.641 1445.77 118.77C1443.2 113.898 1441.92 108.318 1441.92 102.03C1441.92 95.9184 1443.2 90.1613 1445.77 84.7585C1448.43 79.2672 1452.28 74.4401 1457.33 70.2773C1462.46 66.0259 1468.71 62.7045 1476.06 60.3131C1483.41 57.8331 1491.78 56.5932 1501.17 56.5932C1514.1 56.5932 1525.26 58.586 1534.65 62.5717C1544.04 66.4687 1551.26 71.9601 1556.3 79.0457C1561.44 86.0428 1564.01 94.147 1564.01 103.358H1519.24C1519.24 99.7269 1518.62 96.627 1517.38 94.0584C1516.23 91.4899 1514.32 89.5413 1511.66 88.2128C1509.01 86.7957 1505.47 86.0871 1501.04 86.0871C1497.94 86.0871 1495.1 86.6628 1492.53 87.8142C1490.05 88.9656 1488.06 90.5599 1486.56 92.597C1485.05 94.6341 1484.3 97.0255 1484.3 99.7712C1484.3 101.72 1484.74 103.491 1485.63 105.085C1486.6 106.591 1488.06 108.008 1490.01 109.337C1491.96 110.577 1494.44 111.728 1497.45 112.791C1500.46 113.765 1504.09 114.651 1508.34 115.448C1518 117.22 1527.03 119.744 1535.45 123.021C1543.86 126.298 1550.68 130.948 1555.91 136.971C1561.22 142.994 1563.88 151.098 1563.88 161.283C1563.88 167.66 1562.42 173.55 1559.49 178.953C1556.57 184.267 1552.36 188.962 1546.87 193.036C1541.38 197.021 1534.78 200.121 1527.08 202.336C1519.37 204.55 1510.69 205.657 1501.04 205.657C1487.31 205.657 1475.71 203.221 1466.23 198.35C1456.75 193.39 1449.58 187.19 1444.71 179.75C1439.92 172.222 1437.53 164.605 1437.53 156.899H1479.25C1479.43 161.328 1480.49 164.959 1482.44 167.793C1484.47 170.628 1487.18 172.709 1490.54 174.037C1493.91 175.366 1497.8 176.03 1502.23 176.03C1506.31 176.03 1509.67 175.455 1512.33 174.303C1515.07 173.152 1517.16 171.602 1518.57 169.653C1519.99 167.616 1520.7 165.269 1520.7 162.612Z" fill="#D9D9D9" fill-opacity="0.1"/>
</svg>
