<svg width="18" height="22" viewBox="0 0 18 22" fill="none" xmlns="http://www.w3.org/2000/svg">
<path d="M18 17.2353V18.2353H0V17.2353L2 15.2353V9.23529C2 6.13529 4.03 3.40529 7 2.52529V2.23529C7 1.70486 7.21071 1.19615 7.58579 0.821077C7.96086 0.446004 8.46957 0.235291 9 0.235291C9.53043 0.235291 10.0391 0.446004 10.4142 0.821077C10.7893 1.19615 11 1.70486 11 2.23529V2.52529C13.97 3.40529 16 6.13529 16 9.23529V15.2353L18 17.2353ZM11 19.2353C11 19.7657 10.7893 20.2744 10.4142 20.6495C10.0391 21.0246 9.53043 21.2353 9 21.2353C8.46957 21.2353 7.96086 21.0246 7.58579 20.6495C7.21071 20.2744 7 19.7657 7 19.2353" fill="#1C1B1F"/>
</svg>
