<svg width="766" height="206" viewBox="0 0 766 206" fill="none" xmlns="http://www.w3.org/2000/svg">
<path d="M-629.575 102.428V110.267C-629.575 125.058 -631.656 138.344 -635.819 150.123C-639.893 161.815 -645.695 171.823 -653.223 180.149C-660.752 188.386 -669.653 194.719 -679.927 199.147C-690.201 203.487 -701.538 205.657 -713.938 205.657C-726.427 205.657 -737.852 203.487 -748.215 199.147C-758.489 194.719 -767.435 188.386 -775.052 180.149C-782.58 171.823 -788.426 161.815 -792.589 150.123C-796.663 138.344 -798.7 125.058 -798.7 110.267V102.428C-798.7 87.6371 -796.663 74.3515 -792.589 62.5717C-788.426 50.7918 -782.625 40.7833 -775.185 32.5463C-767.656 24.2207 -758.755 17.8879 -748.481 13.5479C-738.118 9.11942 -726.692 6.90517 -714.204 6.90517C-701.804 6.90517 -690.467 9.11942 -680.193 13.5479C-669.83 17.8879 -660.885 24.2207 -653.356 32.5463C-645.828 40.7833 -639.982 50.7918 -635.819 62.5717C-631.656 74.3515 -629.575 87.6371 -629.575 102.428ZM-676.872 110.267V102.163C-676.872 92.597 -677.713 84.1828 -679.396 76.9201C-680.99 69.5687 -683.381 63.4131 -686.57 58.4531C-689.759 53.4932 -693.7 49.7732 -698.394 47.2933C-703 44.7247 -708.27 43.4404 -714.204 43.4404C-720.404 43.4404 -725.807 44.7247 -730.412 47.2933C-735.018 49.7732 -738.871 53.4932 -741.971 58.4531C-745.071 63.4131 -747.418 69.5687 -749.012 76.9201C-750.518 84.1828 -751.271 92.597 -751.271 102.163V110.267C-751.271 119.744 -750.518 128.158 -749.012 135.509C-747.418 142.772 -745.071 148.928 -741.971 153.976C-738.782 159.025 -734.885 162.833 -730.279 165.402C-725.585 167.97 -720.138 169.255 -713.938 169.255C-708.004 169.255 -702.734 167.97 -698.128 165.402C-693.523 162.833 -689.67 159.025 -686.57 153.976C-683.381 148.928 -680.99 142.772 -679.396 135.509C-677.713 128.158 -676.872 119.744 -676.872 110.267ZM-523.556 168.059V59.2503H-478.651V203H-520.633L-523.556 168.059ZM-519.305 138.831L-507.614 138.565C-507.614 148.219 -508.765 157.165 -511.068 165.402C-513.371 173.55 -516.781 180.636 -521.298 186.659C-525.726 192.682 -531.218 197.376 -537.772 200.741C-544.237 204.019 -551.722 205.657 -560.224 205.657C-567.31 205.657 -573.82 204.683 -579.754 202.734C-585.6 200.697 -590.648 197.553 -594.9 193.302C-599.151 188.962 -602.472 183.426 -604.864 176.695C-607.167 169.875 -608.318 161.726 -608.318 152.249V59.2503H-563.546V152.515C-563.546 155.703 -563.147 158.449 -562.35 160.752C-561.553 163.055 -560.401 165.003 -558.896 166.598C-557.39 168.103 -555.53 169.255 -553.316 170.052C-551.013 170.76 -548.4 171.115 -545.477 171.115C-538.746 171.115 -533.476 169.698 -529.668 166.863C-525.859 164.029 -523.202 160.176 -521.696 155.305C-520.102 150.433 -519.305 144.942 -519.305 138.831ZM-408.769 94.8556V203H-453.541V59.2503H-411.692L-408.769 94.8556ZM-366.255 58.1874L-367.052 99.7712C-368.824 99.5941 -371.215 99.3726 -374.227 99.1069C-377.238 98.8412 -379.762 98.7084 -381.799 98.7084C-387.025 98.7084 -391.542 99.3284 -395.351 100.568C-399.071 101.72 -402.17 103.491 -404.65 105.883C-407.042 108.185 -408.813 111.108 -409.965 114.651C-411.028 118.194 -411.515 122.312 -411.426 127.007L-419.53 121.692C-419.53 112.038 -418.6 103.27 -416.74 95.387C-414.792 87.4156 -412.046 80.5514 -408.503 74.7944C-404.96 68.9487 -400.665 64.4759 -395.616 61.376C-390.568 58.1874 -384.899 56.5932 -378.611 56.5932C-376.397 56.5932 -374.227 56.726 -372.101 56.9917C-369.887 57.2574 -367.938 57.656 -366.255 58.1874ZM-181.32 151.585C-181.32 148.573 -181.763 145.872 -182.649 143.481C-183.534 141.001 -185.173 138.698 -187.564 136.572C-189.956 134.447 -193.41 132.321 -197.927 130.195C-202.356 127.981 -208.201 125.678 -215.464 123.287C-223.967 120.452 -232.16 117.264 -240.042 113.721C-247.925 110.09 -254.966 105.883 -261.166 101.1C-267.366 96.2284 -272.282 90.5599 -275.913 84.0943C-279.545 77.54 -281.36 69.923 -281.36 61.2431C-281.36 52.9175 -279.5 45.4333 -275.781 38.7905C-272.061 32.0592 -266.879 26.3464 -260.236 21.6521C-253.505 16.8693 -245.622 13.2379 -236.588 10.758C-227.554 8.18944 -217.678 6.90517 -206.961 6.90517C-192.79 6.90517 -180.302 9.38514 -169.496 14.3451C-158.602 19.2164 -150.099 26.1692 -143.988 35.2034C-137.788 44.149 -134.688 54.7332 -134.688 66.9559H-181.054C-181.054 62.0845 -182.073 57.7889 -184.11 54.0689C-186.059 50.3489 -189.026 47.4261 -193.011 45.3004C-196.997 43.1747 -202.001 42.1119 -208.024 42.1119C-213.87 42.1119 -218.785 42.9976 -222.771 44.769C-226.757 46.5404 -229.768 48.9318 -231.805 51.9432C-233.842 54.866 -234.861 58.0988 -234.861 61.6417C-234.861 64.5645 -234.064 67.2216 -232.47 69.613C-230.787 71.9158 -228.44 74.0858 -225.428 76.1229C-222.328 78.16 -218.608 80.1086 -214.268 81.9686C-209.84 83.8285 -204.88 85.6442 -199.389 87.4156C-189.114 90.6928 -179.992 94.3684 -172.02 98.4427C-163.96 102.428 -157.185 106.99 -151.693 112.127C-146.113 117.175 -141.906 122.932 -139.072 129.398C-136.149 135.864 -134.688 143.171 -134.688 151.319C-134.688 159.999 -136.371 167.705 -139.736 174.436C-143.102 181.167 -147.929 186.88 -154.218 191.574C-160.506 196.18 -168.035 199.679 -176.803 202.07C-185.572 204.461 -195.359 205.657 -206.164 205.657C-216.084 205.657 -225.871 204.417 -235.525 201.937C-245.091 199.369 -253.771 195.472 -261.565 190.246C-269.359 184.932 -275.603 178.156 -280.298 169.919C-284.903 161.593 -287.206 151.718 -287.206 140.292H-240.441C-240.441 145.961 -239.688 150.743 -238.182 154.641C-236.677 158.538 -234.462 161.682 -231.54 164.073C-228.617 166.376 -225.03 168.059 -220.778 169.122C-216.527 170.096 -211.656 170.583 -206.164 170.583C-200.23 170.583 -195.447 169.742 -191.816 168.059C-188.184 166.288 -185.527 163.985 -183.844 161.15C-182.162 158.228 -181.32 155.039 -181.32 151.585ZM-43.1505 205.657C-54.8417 205.657 -65.2931 203.841 -74.5044 200.21C-83.7157 196.49 -91.5099 191.397 -97.887 184.932C-104.175 178.466 -109.003 171.026 -112.368 162.612C-115.645 154.198 -117.284 145.296 -117.284 135.908V130.859C-117.284 120.32 -115.822 110.577 -112.9 101.631C-109.977 92.597 -105.637 84.7142 -99.8798 77.9829C-94.1227 71.2516 -86.9042 66.0259 -78.2243 62.3059C-69.5444 58.4974 -59.4474 56.5932 -47.9333 56.5932C-37.7477 56.5932 -28.6249 58.2317 -20.565 61.5088C-12.5051 64.7859 -5.68518 69.4801 -0.10525 75.5915C5.56325 81.7029 9.85892 89.0985 12.7817 97.7784C15.7931 106.458 17.2988 116.201 17.2988 127.007V145.208H-100.146V117.175H-26.4107V113.721C-26.3221 108.938 -27.1635 104.864 -28.9349 101.498C-30.6177 98.1327 -33.0977 95.5641 -36.3748 93.7927C-39.6519 92.0213 -43.6376 91.1356 -48.3318 91.1356C-53.2032 91.1356 -57.2331 92.1984 -60.4217 94.3241C-63.5216 96.4498 -65.9573 99.3726 -67.7287 103.093C-69.4116 106.724 -70.6073 110.931 -71.3158 115.714C-72.0244 120.497 -72.3787 125.545 -72.3787 130.859V135.908C-72.3787 141.222 -71.6701 146.049 -70.253 150.389C-68.7473 154.729 -66.6216 158.449 -63.8759 161.549C-61.0417 164.56 -57.676 166.908 -53.7789 168.59C-49.7932 170.273 -45.2761 171.115 -40.2276 171.115C-34.1163 171.115 -28.0935 169.963 -22.1593 167.66C-16.2251 165.358 -11.1323 161.549 -6.88088 156.235L13.446 180.415C10.5232 184.577 6.36039 188.607 0.957594 192.504C-4.35663 196.402 -10.7337 199.59 -18.1736 202.07C-25.6135 204.461 -33.9391 205.657 -43.1505 205.657ZM80.671 94.8556V203H35.8986V59.2503H77.7481L80.671 94.8556ZM123.185 58.1874L122.388 99.7712C120.616 99.5941 118.225 99.3726 115.213 99.1069C112.202 98.8412 109.678 98.7084 107.641 98.7084C102.415 98.7084 97.8979 99.3284 94.0894 100.568C90.3694 101.72 87.2695 103.491 84.7895 105.883C82.3981 108.185 80.6267 111.108 79.4753 114.651C78.4124 118.194 77.9253 122.312 78.0138 127.007L69.9097 121.692C69.9097 112.038 70.8396 103.27 72.6996 95.387C74.6482 87.4156 77.3939 80.5514 80.9367 74.7944C84.4795 68.9487 88.7752 64.4759 93.8237 61.376C98.8722 58.1874 104.541 56.5932 110.829 56.5932C113.043 56.5932 115.213 56.726 117.339 56.9917C119.553 57.2574 121.502 57.656 123.185 58.1874ZM192.801 172.31L221.099 59.2503H268.263L221.232 203H193.333L192.801 172.31ZM176.061 59.2503L203.961 172.31L203.695 203H175.663L128.765 59.2503H176.061ZM328.845 59.2503V203H283.94V59.2503H328.845ZM281.283 22.1836C281.283 15.8065 283.586 10.5808 288.191 6.5066C292.797 2.43236 298.776 0.395242 306.127 0.395242C313.478 0.395242 319.457 2.43236 324.062 6.5066C328.668 10.5808 330.971 15.8065 330.971 22.1836C330.971 28.5606 328.668 33.7863 324.062 37.8605C319.457 41.9348 313.478 43.9719 306.127 43.9719C298.776 43.9719 292.797 41.9348 288.191 37.8605C283.586 33.7863 281.283 28.5606 281.283 22.1836ZM417.194 171.115C421.357 171.115 424.9 170.362 427.823 168.856C430.834 167.262 433.093 165.048 434.598 162.213C436.193 159.291 436.945 155.792 436.857 151.718H478.972C479.061 162.523 476.403 172 471.001 180.149C465.686 188.209 458.424 194.497 449.212 199.014C440.09 203.443 429.771 205.657 418.257 205.657C407.009 205.657 397.177 203.841 388.763 200.21C380.349 196.49 373.308 191.353 367.639 184.799C362.059 178.156 357.852 170.406 355.018 161.549C352.272 152.692 350.899 143.082 350.899 132.719V129.664C350.899 119.301 352.272 109.691 355.018 100.834C357.852 91.8885 362.059 84.1385 367.639 77.5843C373.308 70.9416 380.305 65.8045 388.63 62.1731C397.044 58.4531 406.831 56.5932 417.991 56.5932C429.948 56.5932 440.488 58.8517 449.611 63.3688C458.822 67.8859 466.041 74.4401 471.266 83.0314C476.492 91.6227 479.061 102.03 478.972 114.252H436.857C436.945 109.913 436.281 106.015 434.864 102.561C433.447 99.1069 431.233 96.3613 428.221 94.3241C425.298 92.1984 421.534 91.1356 416.928 91.1356C412.323 91.1356 408.603 92.1542 405.769 94.1913C402.934 96.2284 400.764 99.0627 399.259 102.694C397.842 106.237 396.867 110.311 396.336 114.917C395.893 119.522 395.672 124.438 395.672 129.664V132.719C395.672 138.034 395.893 143.038 396.336 147.732C396.867 152.338 397.886 156.412 399.392 159.955C400.897 163.409 403.067 166.155 405.901 168.192C408.736 170.14 412.5 171.115 417.194 171.115ZM567.72 205.657C556.028 205.657 545.577 203.841 536.366 200.21C527.154 196.49 519.36 191.397 512.983 184.932C506.695 178.466 501.867 171.026 498.502 162.612C495.225 154.198 493.586 145.296 493.586 135.908V130.859C493.586 120.32 495.048 110.577 497.97 101.631C500.893 92.597 505.233 84.7142 510.99 77.9829C516.747 71.2516 523.966 66.0259 532.646 62.3059C541.326 58.4974 551.423 56.5932 562.937 56.5932C573.122 56.5932 582.245 58.2317 590.305 61.5088C598.365 64.7859 605.185 69.4801 610.765 75.5915C616.433 81.7029 620.729 89.0985 623.652 97.7784C626.663 106.458 628.169 116.201 628.169 127.007V145.208H510.724V117.175H584.459V113.721C584.548 108.938 583.706 104.864 581.935 101.498C580.252 98.1327 577.772 95.5641 574.495 93.7927C571.218 92.0213 567.232 91.1356 562.538 91.1356C557.667 91.1356 553.637 92.1984 550.448 94.3241C547.348 96.4498 544.913 99.3726 543.141 103.093C541.458 106.724 540.263 110.931 539.554 115.714C538.846 120.497 538.491 125.545 538.491 130.859V135.908C538.491 141.222 539.2 146.049 540.617 150.389C542.123 154.729 544.248 158.449 546.994 161.549C549.828 164.56 553.194 166.908 557.091 168.59C561.077 170.273 565.594 171.115 570.642 171.115C576.754 171.115 582.777 169.963 588.711 167.66C594.645 165.358 599.738 161.549 603.989 156.235L624.316 180.415C621.393 184.577 617.23 188.607 611.828 192.504C606.513 196.402 600.136 199.59 592.696 202.07C585.256 204.461 576.931 205.657 567.72 205.657ZM721.699 162.612C721.699 160.132 720.858 158.006 719.175 156.235C717.581 154.375 714.746 152.692 710.672 151.186C706.598 149.592 700.885 147.998 693.534 146.404C686.537 144.898 679.938 142.905 673.738 140.425C667.627 137.945 662.268 134.934 657.663 131.391C653.057 127.848 649.426 123.641 646.769 118.77C644.2 113.898 642.916 108.318 642.916 102.03C642.916 95.9184 644.2 90.1613 646.769 84.7585C649.426 79.2672 653.279 74.4401 658.327 70.2773C663.464 66.0259 669.708 62.7045 677.06 60.3131C684.411 57.8331 692.781 56.5932 702.169 56.5932C715.101 56.5932 726.261 58.586 735.649 62.5717C745.037 66.4687 752.256 71.9601 757.304 79.0457C762.442 86.0428 765.01 94.147 765.01 103.358H720.238C720.238 99.7269 719.618 96.627 718.378 94.0584C717.226 91.4899 715.322 89.5413 712.665 88.2128C710.008 86.7957 706.465 86.0871 702.037 86.0871C698.937 86.0871 696.102 86.6628 693.534 87.8142C691.054 88.9656 689.061 90.5599 687.555 92.597C686.05 94.6341 685.297 97.0255 685.297 99.7712C685.297 101.72 685.74 103.491 686.625 105.085C687.6 106.591 689.061 108.008 691.01 109.337C692.958 110.577 695.438 111.728 698.449 112.791C701.461 113.765 705.092 114.651 709.344 115.448C718.998 117.22 728.032 119.744 736.446 123.021C744.86 126.298 751.68 130.948 756.906 136.971C762.22 142.994 764.877 151.098 764.877 161.283C764.877 167.66 763.416 173.55 760.493 178.953C757.57 184.267 753.363 188.962 747.872 193.036C742.38 197.021 735.782 200.121 728.076 202.336C720.371 204.55 711.691 205.657 702.037 205.657C688.308 205.657 676.705 203.221 667.228 198.35C657.751 193.39 650.577 187.19 645.706 179.75C640.923 172.222 638.532 164.605 638.532 156.899H680.248C680.425 161.328 681.488 164.959 683.437 167.793C685.474 170.628 688.175 172.709 691.541 174.037C694.907 175.366 698.804 176.03 703.232 176.03C707.306 176.03 710.672 175.455 713.329 174.303C716.075 173.152 718.156 171.602 719.573 169.653C720.991 167.616 721.699 165.269 721.699 162.612Z" fill="#D9D9D9" fill-opacity="0.1"/>
</svg>
