<svg width="802" height="262" viewBox="0 0 802 262" fill="none" xmlns="http://www.w3.org/2000/svg">
<path d="M-123.064 137.369H-171.158V101.365H-123.064C-116.51 101.365 -111.196 100.258 -107.121 98.0441C-103.047 95.8298 -100.08 92.7742 -98.2199 88.8771C-96.2714 84.8914 -95.2971 80.4186 -95.2971 75.4586C-95.2971 70.1444 -96.2714 65.2288 -98.2199 60.7117C-100.08 56.1946 -103.047 52.5632 -107.121 49.8175C-111.196 46.9833 -116.51 45.5661 -123.064 45.5661H-153.621V203H-200.253V9.56228H-123.064C-107.564 9.56228 -94.2343 12.3965 -83.0744 18.065C-71.826 23.7335 -63.1904 31.5277 -57.1676 41.4476C-51.1448 51.2789 -48.1334 62.5274 -48.1334 75.1929C-48.1334 87.6814 -51.1448 98.5755 -57.1676 107.875C-63.1904 117.175 -71.826 124.438 -83.0744 129.664C-94.2343 134.801 -107.564 137.369 -123.064 137.369ZM20.0215 94.8556V203H-24.7508V59.2503H17.0987L20.0215 94.8556ZM62.5353 58.1874L61.7382 99.7712C59.9668 99.5941 57.5754 99.3726 54.564 99.1069C51.5526 98.8412 49.0283 98.7084 46.9912 98.7084C41.7655 98.7084 37.2485 99.3284 33.4399 100.568C29.72 101.72 26.62 103.491 24.14 105.883C21.7486 108.185 19.9772 111.108 18.8258 114.651C17.763 118.194 17.2758 122.312 17.3644 127.007L9.26021 121.692C9.26021 112.038 10.1902 103.27 12.0502 95.387C13.9987 87.4156 16.7444 80.5514 20.2872 74.7944C23.83 68.9487 28.1257 64.4759 33.1742 61.376C38.2227 58.1874 43.8912 56.5932 50.1797 56.5932C52.394 56.5932 54.564 56.726 56.6897 56.9917C58.9039 57.2574 60.8525 57.656 62.5353 58.1874ZM67.5838 132.587V129.797C67.5838 119.257 69.0895 109.558 72.1009 100.701C75.1123 91.7556 79.5408 84.0057 85.3865 77.4515C91.2321 70.8973 98.4506 65.8045 107.042 62.1731C115.633 58.4531 125.553 56.5932 136.802 56.5932C148.139 56.5932 158.103 58.4531 166.694 62.1731C175.374 65.8045 182.637 70.8973 188.482 77.4515C194.328 84.0057 198.757 91.7556 201.768 100.701C204.779 109.558 206.285 119.257 206.285 129.797V132.587C206.285 143.038 204.779 152.736 201.768 161.682C198.757 170.539 194.328 178.289 188.482 184.932C182.637 191.486 175.418 196.579 166.827 200.21C158.236 203.841 148.316 205.657 137.067 205.657C125.819 205.657 115.855 203.841 107.175 200.21C98.4949 196.579 91.2321 191.486 85.3865 184.932C79.5408 178.289 75.1123 170.539 72.1009 161.682C69.0895 152.736 67.5838 143.038 67.5838 132.587ZM112.356 129.797V132.587C112.356 137.989 112.755 143.038 113.552 147.732C114.349 152.426 115.678 156.545 117.538 160.088C119.398 163.542 121.922 166.243 125.11 168.192C128.299 170.14 132.284 171.115 137.067 171.115C141.762 171.115 145.659 170.14 148.759 168.192C151.947 166.243 154.471 163.542 156.331 160.088C158.191 156.545 159.52 152.426 160.317 147.732C161.114 143.038 161.513 137.989 161.513 132.587V129.797C161.513 124.571 161.114 119.655 160.317 115.05C159.52 110.355 158.191 106.237 156.331 102.694C154.471 99.0627 151.947 96.2284 148.759 94.1913C145.57 92.1542 141.584 91.1356 136.802 91.1356C132.107 91.1356 128.166 92.1542 124.977 94.1913C121.877 96.2284 119.398 99.0627 117.538 102.694C115.678 106.237 114.349 110.355 113.552 115.05C112.755 119.655 112.356 124.571 112.356 129.797ZM229.535 59.2503H274.44V207.65C274.44 219.164 272.226 228.863 267.797 236.745C263.369 244.717 257.036 250.739 248.799 254.814C240.562 258.976 230.73 261.058 219.305 261.058C215.496 261.058 211.998 260.881 208.809 260.526C205.532 260.261 201.945 259.685 198.048 258.799V224.921C200.351 225.275 202.477 225.541 204.425 225.718C206.374 225.984 208.499 226.117 210.802 226.117C214.876 226.117 218.286 225.453 221.032 224.124C223.778 222.795 225.859 220.758 227.276 218.013C228.782 215.267 229.535 211.813 229.535 207.65V59.2503ZM226.213 22.1836C226.213 15.8065 228.516 10.5808 233.122 6.5066C237.728 2.43236 243.706 0.395242 251.057 0.395242C258.409 0.395242 264.387 2.43236 268.993 6.5066C273.599 10.5808 275.901 15.8065 275.901 22.1836C275.901 28.5606 273.599 33.7863 268.993 37.8605C264.387 41.9348 258.409 43.9719 251.057 43.9719C243.706 43.9719 237.728 41.9348 233.122 37.8605C228.516 33.7863 226.213 28.5606 226.213 22.1836ZM369.432 205.657C357.74 205.657 347.289 203.841 338.078 200.21C328.866 196.49 321.072 191.397 314.695 184.932C308.407 178.466 303.58 171.026 300.214 162.612C296.937 154.198 295.298 145.296 295.298 135.908V130.859C295.298 120.32 296.76 110.577 299.683 101.631C302.605 92.597 306.945 84.7142 312.702 77.9829C318.459 71.2516 325.678 66.0259 334.358 62.3059C343.038 58.4974 353.135 56.5932 364.649 56.5932C374.834 56.5932 383.957 58.2317 392.017 61.5088C400.077 64.7859 406.897 69.4801 412.477 75.5915C418.145 81.7029 422.441 89.0985 425.364 97.7784C428.375 106.458 429.881 116.201 429.881 127.007V145.208H312.437V117.175H386.171V113.721C386.26 108.938 385.419 104.864 383.647 101.498C381.964 98.1327 379.484 95.5641 376.207 93.7927C372.93 92.0213 368.945 91.1356 364.25 91.1356C359.379 91.1356 355.349 92.1984 352.16 94.3241C349.061 96.4498 346.625 99.3726 344.853 103.093C343.171 106.724 341.975 110.931 341.266 115.714C340.558 120.497 340.203 125.545 340.203 130.859V135.908C340.203 141.222 340.912 146.049 342.329 150.389C343.835 154.729 345.961 158.449 348.706 161.549C351.54 164.56 354.906 166.908 358.803 168.59C362.789 170.273 367.306 171.115 372.355 171.115C378.466 171.115 384.489 169.963 390.423 167.66C396.357 165.358 401.45 161.549 405.701 156.235L426.028 180.415C423.105 184.577 418.943 188.607 413.54 192.504C408.226 196.402 401.848 199.59 394.409 202.07C386.969 204.461 378.643 205.657 369.432 205.657ZM508.797 171.115C512.96 171.115 516.503 170.362 519.426 168.856C522.437 167.262 524.696 165.048 526.201 162.213C527.796 159.291 528.548 155.792 528.46 151.718H570.575C570.664 162.523 568.007 172 562.604 180.149C557.29 188.209 550.027 194.497 540.815 199.014C531.693 203.443 521.374 205.657 509.86 205.657C498.612 205.657 488.78 203.841 480.366 200.21C471.952 196.49 464.911 191.353 459.242 184.799C453.662 178.156 449.455 170.406 446.621 161.549C443.875 152.692 442.502 143.082 442.502 132.719V129.664C442.502 119.301 443.875 109.691 446.621 100.834C449.455 91.8885 453.662 84.1385 459.242 77.5843C464.911 70.9416 471.908 65.8045 480.233 62.1731C488.647 58.4531 498.434 56.5932 509.594 56.5932C521.551 56.5932 532.091 58.8517 541.214 63.3688C550.425 67.8859 557.644 74.4401 562.869 83.0314C568.095 91.6227 570.664 102.03 570.575 114.252H528.46C528.548 109.913 527.884 106.015 526.467 102.561C525.05 99.1069 522.836 96.3613 519.824 94.3241C516.901 92.1984 513.137 91.1356 508.532 91.1356C503.926 91.1356 500.206 92.1542 497.372 94.1913C494.537 96.2284 492.367 99.0627 490.862 102.694C489.445 106.237 488.47 110.311 487.939 114.917C487.496 119.522 487.275 124.438 487.275 129.664V132.719C487.275 138.034 487.496 143.038 487.939 147.732C488.47 152.338 489.489 156.412 490.995 159.955C492.5 163.409 494.67 166.155 497.504 168.192C500.339 170.14 504.103 171.115 508.797 171.115ZM665.434 59.2503V90.3385H578.812V59.2503H665.434ZM597.013 23.5121H641.786V156.102C641.786 159.911 642.228 162.878 643.114 165.003C644 167.04 645.506 168.502 647.631 169.388C649.846 170.185 652.768 170.583 656.4 170.583C658.968 170.583 661.094 170.539 662.777 170.45C664.46 170.273 666.054 170.052 667.56 169.786V201.804C663.751 203.044 659.765 203.974 655.603 204.594C651.44 205.303 647.011 205.657 642.317 205.657C632.751 205.657 624.559 204.151 617.739 201.14C611.007 198.129 605.87 193.39 602.328 186.924C598.785 180.459 597.013 172.045 597.013 161.682V23.5121ZM758.566 162.612C758.566 160.132 757.724 158.006 756.041 156.235C754.447 154.375 751.613 152.692 747.539 151.186C743.464 149.592 737.752 147.998 730.4 146.404C723.403 144.898 716.805 142.905 710.605 140.425C704.493 137.945 699.135 134.934 694.529 131.391C689.924 127.848 686.292 123.641 683.635 118.77C681.067 113.898 679.782 108.318 679.782 102.03C679.782 95.9184 681.067 90.1613 683.635 84.7585C686.292 79.2672 690.145 74.4401 695.194 70.2773C700.331 66.0259 706.575 62.7045 713.926 60.3131C721.278 57.8331 729.647 56.5932 739.036 56.5932C751.967 56.5932 763.127 58.586 772.516 62.5717C781.904 66.4687 789.122 71.9601 794.171 79.0457C799.308 86.0428 801.877 94.147 801.877 103.358H757.104C757.104 99.7269 756.484 96.627 755.244 94.0584C754.093 91.4899 752.189 89.5413 749.532 88.2128C746.874 86.7957 743.332 86.0871 738.903 86.0871C735.803 86.0871 732.969 86.6628 730.4 87.8142C727.92 88.9656 725.928 90.5599 724.422 92.597C722.916 94.6341 722.163 97.0255 722.163 99.7712C722.163 101.72 722.606 103.491 723.492 105.085C724.466 106.591 725.928 108.008 727.876 109.337C729.825 110.577 732.305 111.728 735.316 112.791C738.327 113.765 741.959 114.651 746.21 115.448C755.864 117.22 764.898 119.744 773.313 123.021C781.727 126.298 788.547 130.948 793.772 136.971C799.087 142.994 801.744 151.098 801.744 161.283C801.744 167.66 800.282 173.55 797.36 178.953C794.437 184.267 790.23 188.962 784.738 193.036C779.247 197.021 772.648 200.121 764.943 202.336C757.237 204.55 748.557 205.657 738.903 205.657C725.175 205.657 713.572 203.221 704.095 198.35C694.618 193.39 687.444 187.19 682.572 179.75C677.789 172.222 675.398 164.605 675.398 156.899H717.115C717.292 161.328 718.355 164.959 720.303 167.793C722.34 170.628 725.042 172.709 728.407 174.037C731.773 175.366 735.67 176.03 740.099 176.03C744.173 176.03 747.539 175.455 750.196 174.303C752.941 173.152 755.023 171.602 756.44 169.653C757.857 167.616 758.566 165.269 758.566 162.612Z" fill="#D9D9D9" fill-opacity="0.1"/>
</svg>
