<svg width="288" height="211" viewBox="0 0 288 211" fill="none" xmlns="http://www.w3.org/2000/svg">
<path d="M146.701 150.156C147.072 150.316 147.491 150.32 147.865 150.166C148.238 150.013 148.534 149.715 148.686 149.341C149.251 147.944 149.731 146.555 150.131 145.178L148.691 144.759C149.521 141.905 149.995 139.113 150.172 136.425L151.668 136.523C151.871 133.442 151.699 130.487 151.235 127.717L149.755 127.965C149.261 125.017 148.421 122.29 147.345 119.856L148.717 119.25C147.417 116.307 145.776 113.752 143.957 111.711L142.837 112.709C140.639 110.243 138.197 108.616 135.87 108.071L136.211 106.611C134.564 106.225 132.891 106.284 131.329 106.918C129.766 107.552 128.423 108.718 127.363 110.367L128.625 111.178C127.444 113.014 126.585 115.66 126.209 119.224L124.718 119.067C124.575 120.426 124.5 121.902 124.5 123.5C124.5 125.102 124.661 126.657 124.974 128.163L126.442 127.858C127.039 130.727 128.225 133.392 129.922 135.847L128.689 136.7C130.37 139.133 132.509 141.348 135.019 143.348L135.953 142.175C138.12 143.902 140.594 145.478 143.329 146.9L142.637 148.231C143.939 148.908 145.295 149.55 146.701 150.156Z" stroke="white" stroke-width="3" stroke-linejoin="round" stroke-dasharray="9 9"/>
</svg>
