<svg width="180" height="180" viewBox="0 0 180 180" fill="none" xmlns="http://www.w3.org/2000/svg">
<g clip-path="url(#clip0_1487_3840)">
<path d="M151.875 25.3126H73.125C73.125 25.3126 62.4601 8.4375 56.2499 8.4375H28.1249C21.9147 8.4375 16.875 13.472 16.875 19.6874V149.063C16.875 155.273 21.9147 160.312 28.1249 160.312H151.875C158.085 160.312 163.125 155.273 163.125 149.063V36.5625C163.125 30.3523 158.085 25.3126 151.875 25.3126Z" fill="#D0994B"/>
<path d="M16.875 42.1875H163.125V87.1876H16.875V42.1875Z" fill="#E4E7E7"/>
<path d="M11.2499 53.4376H168.75C174.96 53.4376 180 58.4721 180 64.6875L168.75 160.312C168.75 166.523 163.71 171.562 157.5 171.562H22.4998C16.2896 171.562 11.2499 166.523 11.2499 160.312L0 64.6875C0 58.4715 5.03972 53.4376 11.2499 53.4376Z" fill="#F4B459"/>
</g>
<defs>
<clipPath id="clip0_1487_3840">
<rect width="180" height="180" fill="white"/>
</clipPath>
</defs>
</svg>
